<svg width="217" height="70" viewBox="0 0 217 70" fill="none" xmlns="http://www.w3.org/2000/svg">
<mask id="mask0_203_237" style="mask-type:alpha" maskUnits="userSpaceOnUse" x="0" y="0" width="217" height="70">
<path fill-rule="evenodd" clip-rule="evenodd" d="M21.3997 6.05082C21.4832 11.4302 21.552 12.1446 22.0705 13.0151C22.5714 13.856 23.8501 14.5748 31.6761 18.4159L40.7038 22.8465V26.7627C40.7038 28.9164 40.616 30.6786 40.5088 30.6786C40.4014 30.6786 36.4592 29.6386 31.7483 28.3675C27.0374 27.0964 22.9698 26.0564 22.7092 26.0564C22.4484 26.0564 22.1164 26.284 21.9714 26.5619C21.6089 27.2564 22.1407 68.4223 22.5215 69.1338C22.6798 69.4296 23.0981 69.7431 23.4511 69.8303C24.1043 69.9918 46.5151 63.7622 48.5902 62.8424C50.1667 62.1435 51.3225 60.7086 51.5086 59.2185C51.5941 58.5365 51.8009 54.8586 51.9685 51.0453C52.136 47.2319 52.472 40.2119 52.7155 35.4453C53.3907 22.2202 53.3837 21.2565 52.6 19.6514C51.5057 17.4105 52.4327 18.0137 29.6663 4.72742C25.2639 2.15833 21.582 0.0563764 21.4841 0.0563764C21.3864 0.0563764 21.3483 2.75373 21.3997 6.05082ZM7.02662 7.56489C5.98778 7.97309 1.82575 12.2859 0.881085 13.9332C0.0415738 15.3975 -0.0219808 15.7006 0.00459698 18.1119C0.020197 19.5419 0.116685 21.4902 0.218663 22.4412L0.403842 24.1705L5.60384 24.8165C8.46384 25.1715 10.9338 25.411 11.0927 25.3489C11.2516 25.2865 11.1216 25.2224 10.8038 25.2068C10.4861 25.1912 8.35464 24.7521 6.06722 24.2309L1.90866 23.2833L3.90055 22.1154C4.99631 21.4729 8.29773 19.5521 11.2372 17.8465C14.1766 16.1411 16.8416 14.5933 17.1594 14.4067C17.825 14.0161 18.1607 13.6134 18.1642 13.2008C18.1667 12.9218 18.1642 12.7134 18.1642 11.7134C18.1642 11.2134 18.1642 11.1816 18.1642 10.7134C18.1642 10.1529 18.2846 1.33627 18.0156 1.21338C17.7773 1.10447 17.5156 -0.286621 16.0156 0.0577419C14.7474 -0.726014 7.51562 6.71331 7.02662 7.56489ZM212.146 22.1434C209.963 24.3265 213.007 27.7319 215.321 25.6953C216.452 24.7001 216.565 23.4688 215.626 22.3534C214.633 21.1736 213.202 21.0872 212.146 22.1434ZM215.382 22.4643C215.98 23.0623 216.09 23.3836 215.946 24.1255C215.74 25.1969 214.828 26.0564 213.9 26.0564C212.813 26.0564 211.726 24.9898 211.726 23.9232C211.726 21.8866 213.927 21.0086 215.382 22.4643ZM212.921 23.9619C212.943 24.7168 213.016 25.0418 213.086 24.6842C213.154 24.3265 213.381 24.0342 213.589 24.0342C213.796 24.0342 214.171 24.3265 214.42 24.6842C214.67 25.0418 214.88 25.1793 214.889 24.9901C214.897 24.8009 214.767 24.5617 214.601 24.4588C214.393 24.3306 214.404 24.1442 214.633 23.8678C215.165 23.2264 214.729 22.5897 213.757 22.5897C212.9 22.5897 212.882 22.618 212.921 23.9619ZM214.47 23.3119C214.47 23.4708 214.178 23.6424 213.82 23.6933C213.373 23.7565 213.17 23.6378 213.17 23.3119C213.17 22.9861 213.373 22.8673 213.82 22.9306C214.178 22.9815 214.47 23.1531 214.47 23.3119ZM9.09073 30.6653C4.812 33.0495 1.1876 35.1237 1.03651 35.2748C0.77391 35.5374 0.931933 38.361 2.14931 55.1752C2.39862 58.6205 2.7424 61.4418 2.98275 62.017C3.54984 63.3742 4.68286 64.0207 11.9036 67.1066C16.8893 69.2375 18.3057 69.735 18.6925 69.4908C19.1435 69.2066 19.1874 67.5833 19.2559 48.7506C19.2966 37.5131 19.2241 27.9073 19.0947 27.4043C18.8942 26.6246 18.7125 26.4779 17.8649 26.41C17.045 26.3444 15.5044 27.0915 9.09073 30.6653ZM122.491 26.6385C120.586 27.0415 117.776 28.4524 116.38 29.7074C114.757 31.1668 113.078 33.7836 112.453 35.8301C111.793 37.9895 111.793 41.8566 112.453 44.016C113.522 47.5151 116.189 50.5819 119.54 52.1659C121.386 53.0378 121.577 53.0672 125.348 53.0626C129.124 53.0577 129.311 53.0285 131.208 52.1376C132.499 51.5309 133.766 50.6183 134.926 49.4578C135.894 48.4901 136.632 47.6439 136.566 47.5777C136.5 47.5113 135.282 46.6235 133.859 45.6046L131.274 43.752L129.873 45.0112C126.571 47.9804 122.089 47.2536 120.088 43.4241C118.738 40.8386 119.041 37.2918 120.795 35.1642C121.997 33.7053 123.544 32.9897 125.496 32.9897C127.347 32.9897 128.507 33.4869 130.007 34.9233L131.055 35.9263L133.539 34.0092C134.904 32.955 136.093 31.9769 136.18 31.8362C136.428 31.4361 134.599 29.5207 133.004 28.5082C132.209 28.0041 130.909 27.3691 130.115 27.0973C128.399 26.5097 124.273 26.2615 122.491 26.6385ZM68.1957 28.7286C67.5381 30.3062 59.0515 50.3987 58.1293 52.5619C58.0106 52.8401 58.8365 52.9231 61.7295 52.9231H65.4833L66.4175 50.6053L67.3518 48.2878L72.4334 48.3664L77.5149 48.4453L78.3926 50.6833L79.2705 52.921L83.0833 52.9222L86.896 52.9231L85.362 49.2397C84.5182 47.2137 82.0381 41.299 79.8506 36.0953L75.8735 26.6342H72.4712H69.069L68.1957 28.7286ZM87.7927 39.8994V52.9231H91.3957H94.9988L95.0791 48.9508L95.1594 44.9786H96.6038H98.0483L100.731 48.9508L103.414 52.9231H107.448C109.667 52.9231 111.482 52.8829 111.482 52.8341C111.482 52.7853 110.121 50.7515 108.458 48.3144L105.434 43.884L106.652 43.1098C109.602 41.2349 110.758 38.9041 110.557 35.2355C110.4 32.3761 109.768 30.9637 107.921 29.3416C105.537 27.2486 104.854 27.1157 95.8094 26.9883L87.7927 26.8754V39.8994ZM138.059 39.9231V52.9231H141.67H145.282V47.8603V42.7972L149.832 42.8769L154.382 42.9564L154.461 47.9397L154.54 52.9231H158H161.459V39.9231V26.9231H158H154.54L154.461 31.7619L154.382 36.6008L149.832 36.6803L145.282 36.76V31.8414V26.9231H141.67H138.059V39.9231ZM164.406 36.2397L164.493 45.5564L165.309 47.3235C166.326 49.5237 168.019 51.2073 170.27 52.2583C171.91 53.0239 172.222 53.0675 176.048 53.0661C179.634 53.0646 180.287 52.9866 181.803 52.3771C183.896 51.5352 185.828 49.8057 186.785 47.9169C188.078 45.3663 188.316 43.3343 188.321 34.7953L188.326 26.9231H184.735H181.143L181.052 35.2286C180.966 42.9203 180.917 43.6067 180.382 44.5149C179.48 46.0458 178.444 46.6599 176.558 46.783C174.483 46.9182 173.144 46.2619 172.225 44.6597C171.599 43.5671 171.58 43.2906 171.575 35.2286L171.57 26.9231H167.945H164.318L164.406 36.2397ZM190.926 39.8999V52.9231H198.052C202.035 52.9231 206.018 52.7792 207.08 52.5966C209.203 52.2323 211.259 51.3038 212.214 50.2794C213.158 49.2654 214.024 47.1511 214.029 45.8453C214.04 43.1098 212.918 41.2571 210.511 40.0375L209.083 39.3138L210.219 38.4905C212.019 37.1864 212.713 35.8171 212.705 33.5817C212.696 30.7621 211.48 28.9112 208.837 27.6912C207.637 27.1371 206.901 27.0828 199.232 26.984L190.926 26.8765V39.8999ZM204.62 33.0296C205.527 33.4427 206.027 34.7678 205.65 35.759C205.228 36.8686 203.765 37.3231 200.613 37.3231H197.859V35.0119V32.7008H200.879C202.54 32.7008 204.224 32.8487 204.62 33.0296ZM102.154 33.6547C104.183 34.7352 103.977 38.0225 101.823 38.9223C101.163 39.1982 99.8041 39.3453 97.9131 39.3453H95.0149V36.1354V32.9259L98.1205 33.0432C100.312 33.1261 101.499 33.3061 102.154 33.6547ZM74.015 39.2557C74.7266 41.0338 75.2359 42.5615 75.1469 42.6502C74.8857 42.9113 69.5927 42.8353 69.5927 42.5704C69.5927 41.8991 72.2924 35.5753 72.4906 35.7821C72.6177 35.9147 73.3035 37.4779 74.015 39.2557ZM41.0649 41.5602C41.316 41.7113 41.3547 49.8767 41.1089 50.7934C41.0179 51.1317 40.5972 51.5699 40.1737 51.7675C39.5203 52.0723 32.2495 53.8117 32.1461 53.6877C32.1264 53.6643 32.0178 50.8015 31.9043 47.3258L31.6977 41.0064L36.2731 41.2181C38.7894 41.3346 40.9456 41.4885 41.0649 41.5602ZM205.333 42.5534C206.379 42.918 206.819 43.5723 206.806 44.7429C206.784 46.6377 205.592 47.1453 201.163 47.1453H197.859V44.6897V42.2342H201.139C202.942 42.2342 204.83 42.3777 205.333 42.5534ZM163.048 57.5164C161.509 58.1947 160.591 60.0413 160.594 62.4544C160.597 64.4951 161.086 65.7885 162.235 66.7978C163.197 67.6423 163.417 67.7093 164.834 67.5917C166.703 67.4369 168.104 66.3269 168.104 65.0024C168.104 63.9404 167.096 63.8526 166.835 64.8917C166.396 66.6386 164.169 67.1251 162.882 65.7552C162.25 65.0824 162.182 64.7612 162.182 62.4564C162.182 60.1516 162.25 59.8304 162.882 59.1576C163.866 58.1103 165.519 58.1179 166.349 59.1732C166.679 59.5918 166.948 60.1118 166.948 60.3287C166.948 60.5457 167.208 60.7231 167.526 60.7231C168.45 60.7231 168.286 59.2723 167.251 58.2805C166.609 57.6655 166.054 57.4381 165.012 57.3624C164.25 57.307 163.366 57.3763 163.048 57.5164ZM84.4561 62.2397C83.5368 64.8218 82.7276 67.0968 82.6577 67.2953C82.5791 67.5189 82.7938 67.6564 83.2208 67.6564C83.7731 67.6564 83.995 67.4117 84.335 66.4286L84.7594 65.2009H86.7576H88.7556L89.1649 66.4286C89.4567 67.3037 89.7332 67.6564 90.1278 67.6564C90.4323 67.6564 90.6816 67.4732 90.6816 67.2496C90.6816 67.026 89.9507 64.751 89.0578 62.1941C87.6058 58.0378 87.3646 57.5453 86.7807 57.5453C86.1978 57.5453 85.9479 58.0503 84.4561 62.2397ZM104.325 62.5286C104.403 67.4493 104.412 67.5131 105.054 67.6044C105.682 67.6934 105.704 67.6177 105.704 65.3655V63.0342H107.892C109.82 63.0342 110.068 62.9741 109.983 62.5286C109.904 62.1123 109.517 62.008 107.795 61.9381L105.704 61.8532V60.1326V58.4119H108.159C110.15 58.4119 110.615 58.3299 110.615 57.9786C110.615 57.6195 110.068 57.5453 107.43 57.5453H104.246L104.325 62.5286ZM124.193 62.6211V67.6966L124.843 67.6044C125.444 67.5189 125.499 67.345 125.577 65.2731L125.661 63.0342H126.917C128.799 63.0342 129.49 63.7321 129.676 65.8205C129.819 67.4293 129.867 67.5166 130.66 67.6073C131.376 67.6891 131.461 67.6275 131.259 67.174C131.13 66.8831 130.969 65.9953 130.903 65.2009C130.829 64.3134 130.568 63.5244 130.227 63.1552C129.68 62.5618 129.68 62.5471 130.255 62.0271C131.127 61.2373 131.058 59.1847 130.128 58.2545C129.48 57.606 129.195 57.5453 126.806 57.5453H124.193V62.6211ZM145.282 62.6211V67.6966L145.932 67.6044C146.574 67.5131 146.582 67.4493 146.661 62.5286L146.74 57.5453H146.011H145.282V62.6211ZM183.043 62.0953C182.156 64.5979 181.343 66.8729 181.236 67.1508C181.084 67.5458 181.194 67.6564 181.735 67.6564C182.289 67.6564 182.52 67.4077 182.876 66.4286L183.324 65.2009H185.296H187.267L187.676 66.4286C187.968 67.3037 188.244 67.6564 188.639 67.6564C188.949 67.6564 189.193 67.4574 189.193 67.2043C189.193 66.9556 188.459 64.6805 187.562 62.1487C186.122 58.0861 185.855 57.5453 185.293 57.5453C184.73 57.5453 184.465 58.082 183.043 62.0953ZM128.476 58.5997C129.256 58.8086 129.756 59.8922 129.515 60.8513C129.309 61.6738 128.283 62.1675 126.779 62.1675H125.637V60.2897V58.4119L126.72 58.416C127.316 58.418 128.106 58.5009 128.476 58.5997ZM88.0666 63.3953C88.0787 63.8041 87.8329 63.9008 86.7816 63.9008C85.258 63.9008 85.2444 63.8488 86.1068 61.2951L86.7319 59.4439L87.392 61.1668C87.7549 62.1144 88.0585 63.1174 88.0666 63.3953ZM185.988 61.3569C186.828 63.8422 186.812 63.9008 185.293 63.9008C184.416 63.9008 183.993 63.7781 183.993 63.5235C183.993 63.096 185.152 59.5675 185.293 59.5675C185.343 59.5675 185.656 60.3726 185.988 61.3569Z" fill="white"/>
</mask>
<g mask="url(#mask0_203_237)">
<rect x="-27" y="-8" width="45" height="82" fill="white"/>
</g>
</svg>
