<svg width="170" height="125" viewBox="0 0 170 125" fill="none" xmlns="http://www.w3.org/2000/svg">
<path fill-rule="evenodd" clip-rule="evenodd" d="M101.79 1.43504C99.4834 2.71304 63.9384 38.961 51.9814 52.231C47.2954 57.431 46.7904 58.444 46.7904 62.646C46.7904 67.242 46.9364 67.448 58.2564 78.885L69.7224 90.469L75.1344 85.124L80.5454 79.78L72.1684 71.737C67.5604 67.314 63.7904 63.177 63.7904 62.545C63.7904 61.263 106.506 16.97 107.743 16.97C109.334 16.97 151.301 58.186 151.611 60.053C151.839 61.43 145.961 68.163 131.197 83.435C119.793 95.231 109.843 105.119 109.086 105.41C108.33 105.7 105.816 104.207 103.5 102.091L99.2904 98.244L94.3484 103.716L89.4064 109.187L95.9244 115.516C99.5094 118.997 103.648 122.147 105.122 122.517C112.095 124.267 113.225 123.398 140.988 94.922C168.344 66.863 170.848 63.559 169.418 57.406C168.935 55.332 161.478 47.335 144.012 30.162C130.415 16.793 117.535 4.53104 115.39 2.91204C111.052 -0.359959 106.018 -0.90696 101.79 1.43504ZM56.2904 2.37804C52.0244 4.27004 2.98941 55.25 1.10941 59.749C-1.84459 66.819 -0.820591 68.187 28.8464 96.804C57.2534 124.204 58.5874 125.177 65.5334 123.541C68.1744 122.919 87.6474 103.683 112.561 77.083L122.29 66.696L127 61.339L122.29 55.981L111.043 44.734L99.7964 33.487L94.5604 38.724L89.3244 43.96L97.5574 52.236C102.085 56.788 105.79 61.047 105.79 61.701C105.79 63.259 64.2174 106.374 62.3184 106.787C60.8674 107.102 18.3634 66.906 17.3474 64.258C16.8204 62.884 57.5974 19.642 60.4554 18.545C61.2144 18.254 63.6534 19.659 65.8764 21.667L69.9184 25.318L75.0794 20.157L80.2404 14.996L75.2654 9.90204C70.1374 4.65104 64.2174 0.941041 61.0804 1.00904C60.0954 1.03104 57.9404 1.64704 56.2904 2.37804Z" fill="white"/>
<mask id="mask0_203_324" style="mask-type:alpha" maskUnits="userSpaceOnUse" x="0" y="0" width="170" height="125">
<path fill-rule="evenodd" clip-rule="evenodd" d="M101.79 1.43504C99.4834 2.71304 63.9384 38.961 51.9814 52.231C47.2954 57.431 46.7904 58.444 46.7904 62.646C46.7904 67.242 46.9364 67.448 58.2564 78.885L69.7224 90.469L75.1344 85.124L80.5454 79.78L72.1684 71.737C67.5604 67.314 63.7904 63.177 63.7904 62.545C63.7904 61.263 106.506 16.97 107.743 16.97C109.334 16.97 151.301 58.186 151.611 60.053C151.839 61.43 145.961 68.163 131.197 83.435C119.793 95.231 109.843 105.119 109.086 105.41C108.33 105.7 105.816 104.207 103.5 102.091L99.2904 98.244L94.3484 103.716L89.4064 109.187L95.9244 115.516C99.5094 118.997 103.648 122.147 105.122 122.517C112.095 124.267 113.225 123.398 140.988 94.922C168.344 66.863 170.848 63.559 169.418 57.406C168.935 55.332 161.478 47.335 144.012 30.162C130.415 16.793 117.535 4.53104 115.39 2.91204C111.052 -0.359959 106.018 -0.90696 101.79 1.43504ZM56.2904 2.37804C52.0244 4.27004 2.98941 55.25 1.10941 59.749C-1.84459 66.819 -0.820591 68.187 28.8464 96.804C57.2534 124.204 58.5874 125.177 65.5334 123.541C68.1744 122.919 87.6474 103.683 112.561 77.083L122.29 66.696L127 61.339L122.29 55.981L111.043 44.734L99.7964 33.487L94.5604 38.724L89.3244 43.96L97.5574 52.236C102.085 56.788 105.79 61.047 105.79 61.701C105.79 63.259 64.2174 106.374 62.3184 106.787C60.8674 107.102 18.3634 66.906 17.3474 64.258C16.8204 62.884 57.5974 19.642 60.4554 18.545C61.2144 18.254 63.6534 19.659 65.8764 21.667L69.9184 25.318L75.0794 20.157L80.2404 14.996L75.2654 9.90204C70.1374 4.65104 64.2174 0.941041 61.0804 1.00904C60.0954 1.03104 57.9404 1.64704 56.2904 2.37804Z" fill="black"/>
</mask>
<g mask="url(#mask0_203_324)">
<path d="M-1.9993 42.4702C0.000702858 37.9702 45.5007 -10.5298 50.5007 -11.0298H55L83.5 -3.02979V14.4702L62.5 34.9702L27 57.4702L62.5 99.9702L87 79.4702C86.3333 76.6369 84.7 70.3702 83.5 67.9702C82.3 65.5702 80.3333 56.3036 79.5 51.9702L103 25.9702C108.5 29.4702 121 37.6702 127 42.4702C134.5 48.4702 131.5 53.9702 131.5 57.4702V67.9702C128.833 70.1369 122.7 74.8702 119.5 76.4702C115.5 78.4702 79.5 115.47 79.5 117.97V128.97C74.3333 132.97 62.2 140.97 55 140.97C46 140.97 26.5 137.97 20.5 135.97C14.5 133.97 5.5007 126.97 -8.4993 112.47C-22.4993 97.9702 -11.9993 108.97 -11.9993 102.97V67.9702C-11.9993 62.9702 -3.9993 46.9702 -1.9993 42.4702Z" fill="white"/>
<path d="M50.5007 -11.0298V-11.5298H50.4758L50.451 -11.5273L50.5007 -11.0298ZM-8.4993 112.47L-8.859 112.818L-8.4993 112.47ZM79.5 128.97L79.8061 129.366L80 129.215V128.97H79.5ZM131.5 67.9702L131.815 68.3583L132 68.2082V67.9702H131.5ZM127 42.4702L127.312 42.0798L127 42.4702ZM103 25.9702L103.268 25.5484L102.912 25.3217L102.629 25.6349L103 25.9702ZM79.5 51.9702L79.1291 51.6349L78.9619 51.8199L79.009 52.0646L79.5 51.9702ZM87 79.4702L87.3209 79.8537L87.5573 79.6558L87.4867 79.3557L87 79.4702ZM62.5 99.9702L62.1163 100.291L62.4371 100.675L62.8209 100.354L62.5 99.9702ZM27 57.4702L26.7323 57.0479L26.2507 57.3531L26.6163 57.7907L27 57.4702ZM62.5 34.9702L62.7677 35.3925L62.8118 35.3645L62.8493 35.328L62.5 34.9702ZM83.5 14.4702L83.8493 14.828L84 14.6809V14.4702H83.5ZM83.5 -3.02979H84V-3.40876L83.6351 -3.51118L83.5 -3.02979ZM55 -11.0298L55.1351 -11.5112L55.0688 -11.5298H55V-11.0298ZM50.451 -11.5273C50.2151 -11.5037 49.9614 -11.4158 49.7077 -11.2997C49.448 -11.1808 49.1578 -11.0179 48.8423 -10.8189C48.2113 -10.4208 47.4488 -9.85902 46.5788 -9.16223C44.8373 -7.76747 42.631 -5.80414 40.1275 -3.45705C35.1185 1.23887 28.893 7.49581 22.7651 13.8738C16.6367 20.2524 10.6011 26.757 5.97124 31.95C3.65666 34.5461 1.69081 36.8172 0.239491 38.5823C-0.485907 39.4646 -1.08579 40.2241 -1.53745 40.8365C-1.98008 41.4368 -2.30632 41.9299 -2.4562 42.2671L-1.54239 42.6733C-1.44228 42.448 -1.17867 42.0349 -0.732626 41.4301C-0.295618 40.8375 0.292 40.093 1.01192 39.2175C2.45122 37.4669 4.40724 35.2069 6.71766 32.6155C11.3378 27.4334 17.3647 20.938 23.4863 14.5666C29.6084 8.19462 35.8204 1.95156 40.8114 -2.72752C43.3079 -5.06793 45.4923 -7.01085 47.2039 -8.38171C48.0605 -9.06774 48.7901 -9.60358 49.3759 -9.97311C49.6688 -10.1579 49.9182 -10.2963 50.124 -10.3905C50.3359 -10.4875 50.4738 -10.5246 50.5505 -10.5323L50.451 -11.5273ZM-2.4562 42.2671C-3.43513 44.4697 -5.96661 49.6661 -8.20801 54.8338C-9.33517 57.4325 -10.4035 60.0555 -11.1909 62.3468C-11.9713 64.6177 -12.4993 66.6273 -12.4993 67.9702H-11.4993C-11.4993 66.8132 -11.0273 64.9477 -10.2452 62.6718C-9.47009 60.4162 -8.41343 57.8204 -7.29059 55.2317C-5.03198 50.0243 -2.56347 44.9707 -1.54239 42.6733L-2.4562 42.2671ZM-12.4993 67.9702V102.97H-11.4993V67.9702H-12.4993ZM-12.4993 102.97C-12.4993 103.657 -12.6506 104.004 -12.8021 104.18C-12.9448 104.346 -13.151 104.432 -13.4466 104.447C-13.7513 104.463 -14.1016 104.399 -14.4566 104.306C-14.6315 104.26 -14.7971 104.21 -14.9551 104.163C-15.1058 104.118 -15.2623 104.072 -15.3945 104.044C-15.4611 104.03 -15.5378 104.016 -15.6153 104.012C-15.6825 104.008 -15.8074 104.008 -15.9369 104.064C-16.1025 104.137 -16.2379 104.288 -16.2715 104.494C-16.2976 104.653 -16.2521 104.789 -16.2226 104.862C-16.1602 105.016 -16.0432 105.185 -15.9097 105.357C-15.7677 105.54 -15.5743 105.767 -15.3252 106.046C-14.3325 107.157 -12.3534 109.198 -8.859 112.818L-8.1396 112.123C-11.6452 108.492 -13.6036 106.471 -14.5796 105.379C-14.8227 105.107 -14.9985 104.9 -15.1197 104.744C-15.1802 104.666 -15.2237 104.605 -15.254 104.558C-15.269 104.535 -15.2795 104.517 -15.2866 104.504C-15.2938 104.491 -15.296 104.486 -15.2956 104.487C-15.2954 104.487 -15.2897 104.501 -15.2851 104.525C-15.2806 104.549 -15.2749 104.595 -15.2846 104.655C-15.3101 104.811 -15.4174 104.929 -15.5368 104.981C-15.5829 105.001 -15.6204 105.007 -15.6386 105.009C-15.6486 105.01 -15.6562 105.011 -15.6607 105.011C-15.6653 105.011 -15.668 105.011 -15.6683 105.011C-15.6685 105.011 -15.6633 105.011 -15.6513 105.013C-15.6396 105.014 -15.6241 105.017 -15.6041 105.022C-15.5175 105.04 -15.4006 105.074 -15.2403 105.122C-15.0872 105.167 -14.9042 105.222 -14.71 105.273C-14.3267 105.374 -13.8567 105.47 -13.3957 105.446C-12.9257 105.422 -12.4209 105.27 -12.0442 104.833C-11.6761 104.405 -11.4993 103.784 -11.4993 102.97H-12.4993ZM-8.859 112.818C-1.85148 120.075 3.91466 125.467 8.68737 129.298C13.4539 133.124 17.2584 135.417 20.3419 136.445L20.6581 135.496C17.7416 134.524 14.0465 132.317 9.31333 128.518C4.5864 124.724 -1.14711 119.365 -8.1396 112.123L-8.859 112.818ZM20.3419 136.445C23.3881 137.46 29.8026 138.715 36.5517 139.715C43.3074 140.716 50.462 141.47 55 141.47V140.47C50.538 140.47 43.4426 139.725 36.6983 138.726C29.9474 137.725 23.6119 136.48 20.6581 135.496L20.3419 136.445ZM55 141.47C58.7387 141.47 63.6711 139.41 68.2521 136.909C72.8584 134.394 77.2056 131.379 79.8061 129.366L79.1939 128.575C76.6277 130.562 72.3249 133.546 67.7729 136.031C63.1956 138.53 58.4613 140.47 55 140.47V141.47ZM80 128.97V117.97H79V128.97H80ZM80 117.97C80 118.011 79.9911 117.986 80.0549 117.852C80.11 117.736 80.1986 117.581 80.325 117.386C80.5771 116.996 80.9546 116.484 81.4469 115.861C82.4299 114.618 83.8441 112.969 85.5605 111.045C88.9919 107.201 93.6118 102.284 98.3592 97.3805C103.106 92.4772 107.977 87.5909 111.909 83.8071C113.876 81.9147 115.604 80.3011 116.964 79.0998C117.644 78.4989 118.228 78.0044 118.701 77.6309C119.184 77.2501 119.524 77.0173 119.724 76.9174L119.276 76.023C118.976 76.1731 118.566 76.4637 118.082 76.8459C117.588 77.2354 116.989 77.7433 116.302 78.3504C114.927 79.5651 113.187 81.1898 111.216 83.0865C107.273 86.8808 102.394 91.7758 97.6408 96.6849C92.8882 101.594 88.2581 106.521 84.8145 110.379C83.0934 112.308 81.6638 113.975 80.6625 115.241C80.1626 115.873 79.7628 116.414 79.4855 116.842C79.3473 117.056 79.2332 117.251 79.1519 117.422C79.0792 117.575 79 117.773 79 117.97H80ZM119.724 76.9174C121.365 76.0966 123.729 74.4902 125.995 72.8366C128.269 71.1766 130.476 69.4462 131.815 68.3583L131.185 67.5822C129.857 68.6609 127.664 70.3805 125.405 72.0288C123.138 73.6835 120.835 75.2438 119.276 76.023L119.724 76.9174ZM132 67.9702V57.4702H131V67.9702H132ZM132 57.4702C132 56.6438 132.177 55.7012 132.346 54.5673C132.511 53.4569 132.659 52.2093 132.561 50.8712C132.363 48.1586 131.162 45.1593 127.312 42.0798L126.688 42.8606C130.338 45.7811 131.387 48.5318 131.564 50.9442C131.653 52.1686 131.52 53.3272 131.357 54.42C131.198 55.4893 131 56.5466 131 57.4702H132ZM127.312 42.0798C121.288 37.2603 108.766 29.0466 103.268 25.5484L102.732 26.392C108.234 29.8938 120.712 38.0801 126.688 42.8606L127.312 42.0798ZM102.629 25.6349L79.1291 51.6349L79.8709 52.3055L103.371 26.3055L102.629 25.6349ZM79.009 52.0646C79.4266 54.2363 80.1281 57.6434 80.8759 60.8101C81.2497 62.3933 81.6362 63.9205 82.0054 65.2052C82.3714 66.4788 82.73 67.5482 83.0528 68.1938L83.9472 67.7466C83.67 67.1922 83.3327 66.2033 82.9665 64.929C82.6034 63.6657 82.2211 62.1555 81.8491 60.5803C81.1053 57.4304 80.4067 54.0375 79.991 51.8758L79.009 52.0646ZM83.0528 68.1938C83.6295 69.3472 84.3268 71.4715 84.9697 73.6965C85.6086 75.9079 86.1815 78.1747 86.5133 79.5847L87.4867 79.3557C87.1518 77.9324 86.5747 75.6492 85.9304 73.4189C85.2899 71.2023 84.5705 68.9932 83.9472 67.7466L83.0528 68.1938ZM86.6791 79.0867L62.1791 99.5867L62.8209 100.354L87.3209 79.8537L86.6791 79.0867ZM62.8837 99.6497L27.3837 57.1497L26.6163 57.7907L62.1163 100.291L62.8837 99.6497ZM27.2677 57.8925L62.7677 35.3925L62.2323 34.5479L26.7323 57.0479L27.2677 57.8925ZM62.8493 35.328L83.8493 14.828L83.1507 14.1124L62.1507 34.6124L62.8493 35.328ZM84 14.4702V-3.02979H83V14.4702H84ZM83.6351 -3.51118L55.1351 -11.5112L54.8649 -10.5484L83.3649 -2.54839L83.6351 -3.51118ZM55 -11.5298H50.5007V-10.5298H55V-11.5298Z" fill="white"/>
</g>
</svg>
