<svg width="183" height="57" viewBox="0 0 183 57" fill="none" xmlns="http://www.w3.org/2000/svg">
<path d="M11.7714 30.3095H20.9807L18.9074 40.6325H14.7316L14.0541 38.3527H13.9087C13.2824 39.0675 12.5438 39.6755 11.722 40.1527C10.7112 40.691 9.57437 40.9481 8.43027 40.8971C7.40797 40.9004 6.39277 40.7272 5.42934 40.3853C4.4657 40.0371 3.5916 39.4789 2.87041 38.7511C2.0664 37.9144 1.4533 36.9134 1.07334 35.817C0.591576 34.4145 0.362184 32.9378 0.395804 31.4552C0.389304 29.6754 0.677191 27.9068 1.24781 26.221C1.79489 24.5984 2.66543 23.1037 3.80675 21.8272C4.99251 20.5247 6.44972 19.4983 8.07551 18.8205C9.97395 18.048 12.0109 17.6738 14.0599 17.7213C15.6157 17.692 17.1672 17.8949 18.6631 18.3232C19.9136 18.7093 21.1433 19.1596 22.3474 19.6725L20.9981 26.5787H14.973C14.9963 26.3199 15.0341 26.0117 15.0777 25.6569C15.1213 25.3021 15.1591 24.9299 15.1824 24.5374C15.2056 24.1448 15.2289 23.7581 15.2522 23.3742C15.2754 22.9904 15.29 22.6618 15.29 22.3797C15.2936 22.16 15.281 21.9404 15.2522 21.7225C15.2272 21.4728 15.1665 21.228 15.0719 20.9956C14.9814 20.7692 14.8354 20.5692 14.6473 20.414C14.4091 20.2434 14.1198 20.1593 13.8273 20.1756C13.5085 20.1814 13.1942 20.2522 12.9037 20.3837C12.6132 20.5152 12.3526 20.7046 12.1378 20.9403C11.566 21.5361 11.099 22.2243 10.7566 22.9758C10.3236 23.8981 9.97237 24.8565 9.70683 25.8401C9.39914 26.9095 9.14966 27.9947 8.95951 29.0911C8.76565 30.1903 8.6125 31.2643 8.50006 32.313C8.38763 33.3618 8.33431 34.2826 8.34013 35.0755C8.34013 35.312 8.35273 35.6086 8.37793 35.9653C8.4047 36.3252 8.48507 36.679 8.61638 37.0151C8.73839 37.3494 8.93191 37.6531 9.18342 37.9049C9.33035 38.0369 9.50239 38.1379 9.68926 38.2018C9.87612 38.2658 10.074 38.2914 10.271 38.2771C10.7216 38.2443 11.1595 38.1127 11.5535 37.8916C11.9475 37.6704 12.288 37.3652 12.5507 36.9976C13.4541 35.7355 14.0261 34.2667 14.214 32.7259H11.2422L11.7714 30.3095Z" fill="white"/>
<path d="M32.2913 24.9413C34.4502 24.7643 36.6088 25.2874 38.4472 26.4331C39.1709 27.0778 39.7323 27.884 40.086 28.7864C40.4397 29.6888 40.5756 30.6618 40.4828 31.6265C40.5045 33.0092 40.2505 34.3823 39.7354 35.6656C39.2776 36.8059 38.5585 37.8228 37.6359 38.6345C35.3773 40.2942 32.6045 41.1017 29.8079 40.9143C27.59 41.1175 25.3718 40.5282 23.5473 39.251C22.8483 38.5801 22.3062 37.7629 21.9599 36.8581C21.6135 35.9532 21.4714 34.983 21.5437 34.0168C21.5255 32.5621 21.8502 31.1236 22.4917 29.8178C23.1171 28.5607 24.0516 27.483 25.2077 26.686C27.3467 25.4174 29.8135 24.8103 32.2971 24.9413H32.2913ZM29.8748 38.4949C30.1972 38.4794 30.5099 38.3793 30.7814 38.2048C31.0529 38.0302 31.2738 37.7873 31.4218 37.5005C31.8985 36.7489 32.2529 35.9264 32.4715 35.0637C32.9598 33.211 33.2224 31.3061 33.2538 29.3904C33.2746 28.8797 33.2078 28.3693 33.056 27.8812C32.9941 27.7141 32.8779 27.5726 32.7261 27.4793C32.5743 27.386 32.3956 27.3463 32.2185 27.3665C31.8765 27.3833 31.5443 27.4869 31.2533 27.6675C30.9624 27.8481 30.7221 28.0997 30.5553 28.3988C30.0614 29.1562 29.684 29.9836 29.4357 30.8531C29.1492 31.8037 28.9411 32.7763 28.8134 33.7609C28.6975 34.5615 28.6314 35.3686 28.6157 36.1774C28.6157 37.7185 29.0344 38.4891 29.8719 38.4891L29.8748 38.4949Z" fill="white"/>
<path d="M54.6586 24.5833C54.7386 24.103 54.7737 23.6162 54.7633 23.1294C54.764 22.7783 54.7406 22.4275 54.6934 22.0796C54.6559 21.763 54.5757 21.4529 54.455 21.1578C54.3444 20.896 54.1581 20.6732 53.92 20.5181C53.6421 20.3514 53.322 20.2686 52.9982 20.2796C52.5923 20.2783 52.1925 20.3783 51.835 20.5705C51.4796 20.7565 51.1589 21.0024 50.887 21.2974C50.3223 21.9163 50.0109 22.7249 50.0147 23.5627C49.9744 24.0787 50.1395 24.5897 50.4741 24.9846C50.833 25.3429 51.2629 25.6222 51.7361 25.8046C52.3113 26.0354 52.9059 26.2145 53.5128 26.3397C54.1758 26.4763 54.8621 26.6479 55.5745 26.8369C56.1813 27.0076 56.775 27.2214 57.3512 27.4767C57.9364 27.7319 58.4728 28.0871 58.9361 28.5264C59.4272 29.0086 59.809 29.5907 60.0555 30.2333C60.3646 31.0702 60.5097 31.9587 60.483 32.8504C60.5299 34.1674 60.2226 35.4729 59.5932 36.6307C58.9973 37.6542 58.1533 38.5112 57.139 39.1227C55.9919 39.7998 54.7336 40.2675 53.4227 40.5039C51.8809 40.7989 50.3138 40.9421 48.7439 40.9314C47.3424 40.957 45.9418 40.844 44.5624 40.5941C43.6947 40.4307 42.8438 40.1874 42.0209 39.8671C41.404 39.6365 40.8459 39.272 40.3867 38.7999L41.5964 33.9292H47.8512C47.8279 34.1405 47.8047 34.4313 47.7815 34.8016C47.7582 35.1709 47.7436 35.4588 47.7436 35.674C47.7444 35.9736 47.7795 36.2722 47.8483 36.5638C47.9159 36.8645 48.0298 37.1528 48.1857 37.4187C48.3463 37.6847 48.5726 37.905 48.8428 38.0584C49.1711 38.2312 49.5394 38.3135 49.91 38.2969C50.3514 38.3058 50.7872 38.1964 51.172 37.9799C51.5277 37.7737 51.8406 37.5012 52.0938 37.1773C52.3474 36.8576 52.5441 36.4966 52.6754 36.1101C52.8024 35.7354 52.8682 35.3427 52.8702 34.947C52.8867 34.4798 52.7565 34.0192 52.498 33.6297C52.2324 33.2519 51.8869 32.9372 51.4861 32.7079C51.0134 32.4474 50.513 32.2407 49.9943 32.0915L48.2729 31.539C47.703 31.38 47.1049 31.1793 46.4787 30.937C45.854 30.7 45.2725 30.3621 44.7572 29.9367C44.2198 29.4913 43.7786 28.9412 43.4604 28.3199C43.0882 27.5374 42.9116 26.6763 42.9457 25.8104C42.9017 24.4434 43.3106 23.1002 44.1088 21.9895C44.8832 20.9507 45.8758 20.0941 47.0167 19.48C48.2238 18.823 49.5255 18.357 50.8754 18.0987C52.1871 17.8343 53.5212 17.697 54.8592 17.6887C56.3096 17.6571 57.7559 17.8533 59.1454 18.2703C60.1304 18.5583 61.0533 19.0266 61.8672 19.6516L60.5499 24.5949L54.6586 24.5833Z" fill="white"/>
<path d="M66.2521 46.5995H58.9824L63.4663 25.3342H69.2618L69.9015 27.614H70.1138C70.9055 26.7558 71.8861 26.0937 72.978 25.6802C73.9714 25.3032 75.024 25.1063 76.0865 25.0987C76.7989 25.0759 77.5082 25.2027 78.1686 25.4709C78.6895 25.6926 79.1472 26.0404 79.5004 26.4828C79.8452 26.9365 80.0882 27.4592 80.2128 28.0152C80.3579 28.6327 80.4291 29.2653 80.4251 29.8996C80.4251 30.2311 80.4009 30.7303 80.3524 31.3971C80.2925 32.1448 80.1847 32.8878 80.0297 33.6217C79.8523 34.4788 79.6143 35.3223 79.3173 36.1457C79.0225 36.9911 78.6104 37.7908 78.093 38.5214C77.5848 39.233 76.9304 39.8279 76.1738 40.2662C75.3306 40.7363 74.3763 40.9703 73.4113 40.9437C72.2905 40.9419 71.1862 40.6738 70.1894 40.1615C69.7571 39.9382 69.3571 39.6574 69.0001 39.3269C68.6884 39.0499 68.4293 38.7189 68.2353 38.3499H68.023L66.2521 46.5995ZM70.0323 37.46C70.3302 37.4479 70.6194 37.356 70.8695 37.1938C71.1197 37.0317 71.3217 36.8052 71.4543 36.5382C71.8603 35.8726 72.1706 35.1531 72.3761 34.4009C72.6098 33.5971 72.7819 32.7767 72.8908 31.9467C72.9805 31.3369 73.0339 30.7222 73.0507 30.106C73.0614 29.7052 72.9798 29.3072 72.8122 28.9429C72.7345 28.7914 72.6133 28.6666 72.464 28.5847C72.3147 28.5029 72.1443 28.4676 71.9748 28.4834C71.5083 28.4854 71.0566 28.6476 70.6953 28.9429C70.3708 29.1898 70.0727 29.4694 69.8055 29.7774L68.4243 36.2882C68.6247 36.5628 68.8495 36.8188 69.096 37.0529C69.2155 37.1815 69.3598 37.2843 69.5203 37.3553C69.6808 37.4263 69.854 37.4639 70.0295 37.4659L70.0323 37.46Z" fill="white"/>
<path d="M83.3859 25.3542H89.1784L89.7135 28.0236H89.9608C90.508 27.167 91.222 26.4293 92.0602 25.8543C93.0682 25.2172 94.2481 24.9064 95.4391 24.9645H95.8986C96.1271 24.9797 96.3537 25.0148 96.5761 25.0692C96.842 25.1304 97.1035 25.2101 97.3584 25.3076C97.6438 25.4255 97.9125 25.5799 98.158 25.7671L96.5936 33.092H92.7261C92.7376 32.0505 92.6054 31.0123 92.3335 30.0068C92.1213 29.4252 91.7753 29.1344 91.3013 29.1344C91.0386 29.1394 90.7792 29.1936 90.5365 29.2944C90.2027 29.4509 89.9143 29.6901 89.699 29.9893L87.4251 40.6525H80.1641L83.3859 25.3542Z" fill="white"/>
<path d="M103.662 40.6322H96.4414L99.6633 25.3426H106.953L103.662 40.6322ZM107.893 20.6929C107.906 21.1878 107.791 21.6778 107.558 22.1148C107.335 22.5161 107.032 22.8674 106.668 23.1471C106.291 23.4366 105.863 23.6535 105.406 23.7869C104.935 23.9279 104.445 23.9994 103.952 23.9991C103.109 24.027 102.278 23.79 101.577 23.3216C101.252 23.0734 100.995 22.7476 100.83 22.3741C100.664 22.0006 100.595 21.5915 100.629 21.1843C100.622 20.697 100.733 20.2153 100.951 19.7798C101.158 19.3725 101.457 19.019 101.824 18.7475C102.21 18.4666 102.644 18.256 103.103 18.1252C103.594 17.9826 104.102 17.911 104.613 17.9129C105.446 17.8869 106.267 18.124 106.959 18.5905C107.274 18.8339 107.523 19.1521 107.684 19.5161C107.845 19.8802 107.913 20.2787 107.881 20.6754L107.893 20.6929Z" fill="white"/>
<path d="M115.864 27.6079C116.377 27.1181 116.933 26.6771 117.528 26.2907C118.139 25.9272 118.781 25.6187 119.447 25.3689C120.231 25.0749 121.063 24.9299 121.901 24.9414C122.998 24.8984 124.077 25.233 124.957 25.8894C125.351 26.1906 125.667 26.5823 125.877 27.0312C126.088 27.4802 126.187 27.9732 126.167 28.4687C126.162 28.844 126.127 29.2184 126.062 29.5882C125.99 30.0263 125.907 30.4868 125.812 30.9695C125.716 31.4289 125.614 31.9174 125.521 32.406C125.428 32.8945 125.324 33.3278 125.254 33.7029L123.771 40.6353H116.55L118.508 31.3533C118.554 31.0451 118.612 30.7281 118.688 30.4053C118.755 30.1193 118.79 29.8267 118.792 29.533C118.805 29.2202 118.711 28.9126 118.525 28.6606C118.428 28.5442 118.304 28.4526 118.165 28.3934C118.025 28.3343 117.874 28.3092 117.722 28.3204C117.272 28.3273 116.837 28.4896 116.492 28.7798C116.171 29.0228 115.863 29.284 115.571 29.562L113.221 40.612H105.975L109.196 25.3224H114.992L115.632 27.5963L115.864 27.6079Z" fill="white"/>
<path d="M127.742 25.3311C128.523 25.1675 129.292 24.9538 130.045 24.6913C130.691 24.4664 131.309 24.1678 131.886 23.8015C132.468 23.4246 133.006 22.9827 133.488 22.4843C134.078 21.8758 134.633 21.2351 135.152 20.5651H138.813L137.78 25.3311H140.543L140.083 27.7068H137.266L135.812 34.6392C135.692 35.182 135.595 35.6666 135.521 36.0931C135.46 36.4214 135.425 36.7539 135.416 37.0876C135.389 37.273 135.425 37.4623 135.52 37.6241C135.615 37.7859 135.762 37.9106 135.937 37.9774C136.571 38.1289 137.224 38.1896 137.876 38.1577L137.341 40.6265C137.09 40.6859 136.834 40.7209 136.577 40.7312L135.44 40.8184C135.015 40.8562 134.596 40.8795 134.16 40.8882C133.724 40.8969 133.337 40.8882 132.997 40.8882C132.413 40.889 131.83 40.8472 131.252 40.7632C130.716 40.692 130.198 40.5235 129.723 40.2659C129.266 40.0116 128.889 39.635 128.635 39.1784C128.334 38.585 128.193 37.9236 128.225 37.2592C128.22 36.9028 128.236 36.5464 128.274 36.192C128.32 35.7132 128.399 35.238 128.51 34.77L130.005 27.6923H127.242L127.742 25.3311Z" fill="white"/>
<path d="M182.18 11.1057C181.365 9.77804 180.223 8.68144 178.863 7.92043C177.504 7.15942 175.972 6.75936 174.414 6.75839H172.96L168.598 2.39658H150.86L145.623 0.0324707H142.441L152.235 11.0824H158.251L182.18 11.1057Z" fill="white"/>
<path d="M171.793 13.4406L171.415 14.057C170.95 14.8132 170.299 15.4375 169.523 15.8702C168.748 16.3029 167.875 16.5297 166.987 16.5287H165.242L163.916 17.8547H151.296L147.548 19.55H145.291L150.484 13.4435H154.756L171.793 13.4406Z" fill="white"/>
<path d="M174.705 11.1084L172.541 8.94495H115.547L109.539 11.1084H174.705Z" fill="white"/>
<path d="M84.358 53.7498C83.8589 53.5127 83.441 53.1333 83.157 52.6593C82.862 52.1557 82.714 51.5794 82.7296 50.996C82.7311 50.6659 82.77 50.3372 82.8459 50.016C83.0042 49.2265 83.3426 48.4842 83.8346 47.8468C84.3069 47.2294 84.9174 46.7314 85.6171 46.3929C86.326 46.0543 87.1026 45.8813 87.8882 45.8868C88.3801 45.8782 88.8704 45.9449 89.3421 46.0846C89.745 46.2088 90.1162 46.4191 90.4297 46.7011L90.1912 47.8061C89.9087 47.5158 89.5636 47.294 89.1822 47.1576C88.7235 47.008 88.2425 46.9381 87.7602 46.9511C87.1792 46.9478 86.6048 47.075 86.0794 47.3233C85.557 47.5695 85.0999 47.9351 84.7448 48.3905C84.3765 48.8656 84.1245 49.4203 84.0091 50.0102C83.9455 50.2968 83.9113 50.589 83.9072 50.8825C83.8904 51.1828 83.9395 51.4831 84.051 51.7624C84.1625 52.0417 84.3339 52.2932 84.5529 52.4993C85.0835 52.9186 85.7508 53.1259 86.4255 53.0809C86.7551 53.0831 87.0837 53.0479 87.4054 52.9762C87.6844 52.9154 87.9517 52.8093 88.1965 52.6622L88.656 50.6005H87.1553L87.3474 49.6787H89.9935L89.2259 53.2874C88.3169 53.8833 87.244 54.1793 86.1581 54.1336C85.5364 54.1474 84.92 54.016 84.358 53.7498Z" fill="white"/>
<path d="M90.9945 53.5752C90.7574 53.3822 90.5693 53.136 90.4455 52.8565C90.3217 52.5771 90.2657 52.2723 90.2821 51.9671C90.2828 51.735 90.3101 51.5038 90.3635 51.2779C90.512 50.4591 90.9307 49.7137 91.5529 49.161C92.2204 48.6264 93.0598 48.3535 93.9141 48.3933C94.3642 48.3862 94.8096 48.4858 95.2138 48.6841C95.5567 48.8524 95.8421 49.1185 96.0339 49.4489C96.2207 49.7837 96.3158 50.1617 96.3101 50.5451C96.3106 50.7571 96.2892 50.9686 96.2462 51.1761L96.1211 51.7432H91.3725C91.3595 51.8396 91.3518 51.9367 91.3493 52.034C91.337 52.2146 91.3731 52.3953 91.4538 52.5573C91.5346 52.7193 91.6571 52.8568 91.8088 52.9557C92.2661 53.1838 92.7764 53.2842 93.286 53.2465C93.6457 53.2455 94.0046 53.2134 94.3589 53.1506C94.6952 53.0954 95.0261 53.0108 95.3476 52.8976L95.1586 53.8194C94.8301 53.9325 94.491 54.0124 94.1466 54.0578C93.7541 54.1192 93.3576 54.1513 92.9603 54.1537C92.2601 54.1974 91.5661 53.9993 90.9945 53.5925V53.5752ZM95.2081 50.9173C95.2335 50.7791 95.2491 50.6391 95.2546 50.4986C95.2546 49.7057 94.7331 49.3093 93.6901 49.3093C93.1779 49.2979 92.6768 49.4597 92.2681 49.7687C91.8928 50.057 91.6322 50.4693 91.5324 50.9319L95.2081 50.9173Z" fill="white"/>
<path d="M97.6019 53.8224C97.4809 53.7029 97.387 53.5586 97.3268 53.3996C97.2666 53.2405 97.2415 53.0704 97.253 52.9007C97.2556 52.7097 97.279 52.5195 97.3227 52.3336L97.9304 49.446H97.1074L97.3023 48.5737H98.1253L98.4625 46.9482H99.6257L99.2883 48.5737H100.62L100.428 49.446H99.0965L98.4975 52.2551C98.466 52.4064 98.4476 52.56 98.4423 52.7145C98.4348 52.7924 98.4458 52.8711 98.4746 52.9439C98.5034 53.0167 98.5492 53.0816 98.608 53.1333C98.7772 53.2306 98.9717 53.2742 99.1662 53.2583C99.298 53.2564 99.4294 53.2427 99.5588 53.2176C99.691 53.1961 99.8206 53.1611 99.9455 53.1129L99.7537 54.0347C99.4001 54.1404 99.0322 54.1904 98.6632 54.183C98.2759 54.2063 97.8949 54.0768 97.6019 53.8224Z" fill="white"/>
<path d="M105.639 56.4713C105.349 56.4279 105.067 56.3406 104.802 56.2125L105.006 55.2907C105.596 55.5617 106.241 55.6921 106.89 55.6716C107.469 55.7134 108.044 55.5508 108.515 55.2122C108.926 54.8569 109.198 54.3676 109.283 53.8309L109.408 53.2494C109.091 53.5479 108.718 53.7803 108.31 53.9331C107.902 54.0858 107.468 54.1559 107.032 54.1392C106.618 54.1403 106.21 54.0405 105.843 53.8484C105.498 53.6727 105.211 53.4023 105.014 53.0691C104.813 52.7152 104.712 52.313 104.723 51.906C104.725 51.6861 104.749 51.4669 104.793 51.2517C104.938 50.4379 105.358 49.6985 105.983 49.158C106.616 48.6314 107.419 48.3542 108.242 48.3787C108.663 48.363 109.083 48.4385 109.472 48.5997C109.807 48.7625 110.09 49.014 110.292 49.3267L110.464 48.5474H111.569L110.473 53.6913C110.334 54.5195 109.914 55.2746 109.283 55.8287C108.539 56.3586 107.636 56.6154 106.724 56.5556C106.361 56.561 105.998 56.5328 105.639 56.4713ZM108.757 52.8627C109.159 52.6259 109.488 52.2815 109.705 51.8681L109.964 50.6527C109.946 50.4608 109.89 50.2744 109.799 50.1045C109.708 49.9347 109.584 49.7849 109.434 49.664C109.101 49.4112 108.689 49.2835 108.271 49.3033C107.713 49.2905 107.17 49.4807 106.742 49.8385C106.311 50.2042 106.019 50.7058 105.913 51.2604C105.867 51.4409 105.843 51.6265 105.843 51.8129C105.833 52.0061 105.864 52.1992 105.935 52.3793C106.006 52.5594 106.114 52.7222 106.253 52.8568C106.587 53.1303 107.012 53.2655 107.442 53.2349C107.903 53.2341 108.354 53.1052 108.745 52.8627H108.757Z" fill="white"/>
<path d="M112.239 53.5723C112.013 53.3765 111.834 53.1319 111.716 52.8569C111.598 52.5818 111.545 52.2836 111.559 51.9847C111.558 51.745 111.585 51.506 111.638 51.2722C111.748 50.7192 111.986 50.1996 112.332 49.7543C112.672 49.3185 113.114 48.9723 113.618 48.7453C114.158 48.5029 114.744 48.3818 115.336 48.3905C116.01 48.3496 116.675 48.5564 117.206 48.9721C117.432 49.1728 117.61 49.4213 117.727 49.6995C117.845 49.9776 117.899 50.2784 117.887 50.5801C117.886 50.813 117.859 51.0451 117.808 51.2722C117.654 52.1035 117.203 52.8501 116.537 53.3717C115.84 53.901 114.982 54.176 114.106 54.151C113.436 54.1855 112.774 53.9793 112.242 53.5695L112.239 53.5723ZM115.799 52.7C116.224 52.3309 116.513 51.8304 116.622 51.278C116.664 51.0703 116.685 50.859 116.685 50.6471C116.685 49.7514 116.164 49.3046 115.121 49.3065C114.571 49.2967 114.035 49.4845 113.612 49.8358C113.179 50.2115 112.888 50.7249 112.789 51.2897C112.748 51.4868 112.727 51.6874 112.725 51.8887C112.714 52.0745 112.743 52.2604 112.809 52.4343C112.875 52.6082 112.977 52.7662 113.109 52.8977C113.446 53.1611 113.869 53.2878 114.295 53.2525C114.851 53.2673 115.393 53.0756 115.816 52.7145L115.799 52.7Z" fill="white"/>
<path d="M119.444 48.5591H120.608L119.444 53.9735H118.281L119.444 48.5591ZM119.849 47.3523C119.799 47.3039 119.761 47.2459 119.735 47.1818C119.71 47.1177 119.698 47.049 119.7 46.9801C119.698 46.8707 119.72 46.7621 119.763 46.6618C119.807 46.5614 119.872 46.4717 119.953 46.3986C120.029 46.3216 120.12 46.2607 120.22 46.2198C120.319 46.1788 120.427 46.1585 120.535 46.1601C120.608 46.1569 120.681 46.1684 120.75 46.1939C120.819 46.2193 120.882 46.2583 120.936 46.3084C120.987 46.3573 121.028 46.4165 121.055 46.4822C121.082 46.5478 121.095 46.6183 121.093 46.6893C121.094 46.7964 121.072 46.9024 121.028 47.0002C120.984 47.0981 120.92 47.1854 120.84 47.2564C120.684 47.4083 120.476 47.4938 120.259 47.4948C120.183 47.4964 120.109 47.4819 120.039 47.4523C119.97 47.4227 119.908 47.3787 119.857 47.3233L119.849 47.3523Z" fill="white"/>
<path d="M121.894 48.5592H122.999L122.827 49.3386C123.141 49.0283 123.515 48.7858 123.927 48.6262C124.314 48.4734 124.726 48.3926 125.142 48.3877C125.379 48.3743 125.616 48.408 125.84 48.4868C126.063 48.5657 126.269 48.6881 126.445 48.8471C126.597 48.999 126.717 49.1807 126.796 49.3808C126.875 49.581 126.912 49.7952 126.904 50.0103C126.901 50.1831 126.883 50.3554 126.849 50.525L126.116 53.9883H124.973L125.686 50.6355C125.728 50.4493 125.751 50.2593 125.756 50.0685C125.767 49.9597 125.751 49.8498 125.71 49.7485C125.669 49.6471 125.604 49.5573 125.52 49.4869C125.274 49.3441 124.989 49.2812 124.706 49.3066C124.336 49.307 123.972 49.3936 123.642 49.5595C123.271 49.7503 122.943 50.0134 122.676 50.3331L121.909 53.9796H120.771L121.894 48.5592Z" fill="white"/>
<path d="M128.457 56.4685C128.167 56.4252 127.886 56.3378 127.622 56.2096L127.826 55.2878C128.416 55.5586 129.061 55.689 129.71 55.6687C130.289 55.7107 130.864 55.5481 131.336 55.2093C131.747 54.854 132.019 54.3647 132.103 53.828L132.228 53.2465C131.911 53.545 131.538 53.7774 131.13 53.9302C130.722 54.0829 130.288 54.153 129.853 54.1363C129.439 54.1366 129.031 54.0368 128.663 53.8455C128.32 53.6684 128.033 53.3984 127.835 53.0662C127.634 52.7122 127.533 52.31 127.544 51.9031C127.545 51.6832 127.569 51.464 127.614 51.2488C127.757 50.4349 128.177 49.6955 128.803 49.1551C129.436 48.6283 130.239 48.3511 131.062 48.3758C131.483 48.3605 131.903 48.4359 132.292 48.5968C132.627 48.7596 132.911 49.0111 133.112 49.3238L133.284 48.5445H134.389L133.293 53.6884C133.156 54.5165 132.737 55.2717 132.106 55.8258C131.363 56.3559 130.459 56.6127 129.547 56.5528C129.186 56.5519 128.826 56.5179 128.471 56.451L128.457 56.4685ZM131.574 52.8598C131.976 52.623 132.305 52.2786 132.522 51.8653L132.781 50.6439C132.763 50.4513 132.707 50.2641 132.617 50.0934C132.526 49.9226 132.402 49.7717 132.252 49.6495C131.918 49.3969 131.506 49.2692 131.088 49.2888C130.531 49.276 129.987 49.4662 129.559 49.8239C129.283 50.0761 129.061 50.3815 128.907 50.7219C128.752 51.0623 128.669 51.4305 128.66 51.8042C128.65 51.9974 128.682 52.1905 128.752 52.3706C128.823 52.5506 128.932 52.7134 129.07 52.8481C129.404 53.1218 129.83 53.2571 130.26 53.2261C130.717 53.2247 131.165 53.097 131.554 52.8569L131.574 52.8598Z" fill="white"/>
</svg>
