<svg width="234" height="104" viewBox="0 0 234 104" fill="none" xmlns="http://www.w3.org/2000/svg">
<path fill-rule="evenodd" clip-rule="evenodd" d="M48.6072 0.0578901C41.5129 0.462448 36.1519 2.24783 31.9061 5.61981C27.6437 9.00492 24.6548 14.0482 23.4743 19.8468C22.8423 22.9514 22.7311 26.5518 23.1766 29.4853C23.8031 33.6112 25.3115 37.4137 27.6348 40.7242C29.7539 43.7437 32.7041 46.1592 36.5078 47.9889C39.6574 49.5039 43.0455 50.4656 46.9708 50.9586C48.8804 51.1985 49.7531 51.2452 52.3928 51.2489C55.1356 51.2528 55.6365 51.2253 57.7036 50.9581C60.75 50.5642 63.8806 49.7283 65.9963 48.7439C67.2609 48.1554 67.4614 47.993 67.668 47.3899C67.7191 47.2408 67.7542 44.9374 67.7857 39.6736C67.8384 30.8513 67.892 29.702 68.3005 28.6261C68.7016 27.5699 69.5459 27.1403 71.5531 26.9712C72.1643 26.9198 72.2352 26.8998 72.3724 26.741C72.5789 26.5017 72.5777 26.1059 72.3697 25.8987C72.0779 25.608 71.7038 25.5836 68.9923 25.6778C65.8439 25.7873 64.0193 25.7873 60.2128 25.6779C57.8671 25.6105 57.0716 25.6076 56.7928 25.6652C56.3382 25.7592 56.0941 25.9797 56.0941 26.2963C56.0941 26.8252 56.3079 26.932 57.4744 26.9853C58.5076 27.0326 59.1676 27.1537 59.8789 27.4266C60.9956 27.855 61.3887 28.4045 61.6615 29.9184C61.7662 30.4995 61.7757 31.1732 61.7758 37.9594L61.7759 45.3661L61.6005 45.7219C61.372 46.1853 61.0448 46.4936 60.4447 46.811C59.5653 47.2761 58.1272 47.6424 56.159 47.9025C55.4599 47.9948 54.8354 48.0179 53.0747 48.0164C50.6888 48.0142 49.8631 47.9397 47.9773 47.5564C43.4843 46.6431 39.2903 44.3979 35.9609 41.1238C33.7105 38.9109 31.6263 35.3303 30.3911 31.5553C29.0847 27.5627 28.7514 23.0973 29.4376 18.7794C30.1058 14.5741 31.7289 10.9556 34.1208 8.33916C35.1718 7.18939 37.401 5.63443 39.2314 4.77434C41.5628 3.67879 44.0071 3.0922 47.078 2.89122C49.1961 2.75259 52.4775 2.87181 54.4707 3.15973C59.4389 3.87745 63.4127 5.73185 64.9309 8.04127C65.5145 8.92885 66.0676 10.592 66.2217 11.9225C66.3169 12.7439 66.3785 12.9713 66.5572 13.1607C66.8755 13.4984 67.5168 13.2519 67.6448 12.7426C67.6777 12.6118 67.7229 11.4422 67.7453 10.1436C67.7877 7.67856 67.8526 6.35098 68.0155 4.61282C68.1931 2.7161 68.2035 2.34169 68.0832 2.15882C67.8844 1.85653 67.6394 1.78913 66.3905 1.6932C64.7983 1.57087 63.2636 1.37332 62.133 1.14523C59.4685 0.607607 56.6377 0.234165 53.8539 0.0530387C52.7352 -0.019735 49.9235 -0.0171477 48.6072 0.0578901ZM171.403 10.7621C171.305 10.8148 170.94 10.9057 170.591 10.9641C169.701 11.1129 161.492 11.1627 157.052 11.0463C153.558 10.9545 153.448 10.9622 153.269 11.3073C153.135 11.5649 153.146 11.6767 153.32 11.8507C153.451 11.9808 153.559 12.0051 154.181 12.0444C154.922 12.091 155.651 12.2449 156.01 12.4303C156.442 12.6534 156.737 13.0916 156.867 13.7014C157.016 14.403 157.064 17.4988 157.065 26.5743C157.065 39.6359 156.988 41.7497 156.468 42.958C156.224 43.5247 155.944 43.666 154.808 43.7961C154.042 43.8839 153.885 43.9754 153.885 44.3336C153.885 44.6139 154.057 44.7938 154.385 44.856C154.521 44.8818 155.713 44.8676 157.035 44.8243C158.788 44.7669 159.841 44.7639 160.931 44.813C165.52 45.0198 170.974 45.0742 171.634 44.9196C172.537 44.708 172.736 44.1759 173.136 40.9199C173.327 39.3668 173.338 38.995 173.202 38.7334C173.022 38.3871 172.559 38.4139 172.369 38.7814C172.318 38.8807 172.217 39.2531 172.146 39.6089C171.619 42.2194 170.535 42.8087 166.255 42.8104C163.255 42.8115 162.089 42.4997 161.606 41.5677C161.258 40.8944 161.264 41.0109 161.24 34.2134C161.227 30.7478 161.241 27.8914 161.269 27.8659C161.333 27.8077 165.307 27.9048 166.739 27.9996C168.067 28.0876 168.358 28.1411 168.873 28.3919C169.566 28.7298 169.823 29.2324 169.917 30.4379C169.944 30.7856 170.002 31.137 170.046 31.2188C170.222 31.544 170.701 31.5203 170.872 31.1779C170.914 31.0949 170.967 30.6291 170.99 30.1429C171.076 28.3345 171.245 26.6469 171.447 25.5949C171.514 25.2499 171.524 25.0366 171.481 24.888C171.408 24.6341 171.323 24.5713 171.051 24.57C170.887 24.5692 170.778 24.6405 170.499 24.9305C170.308 25.1294 170.049 25.3442 169.924 25.4077C169.33 25.71 168.077 25.7941 164.128 25.7964L161.222 25.7981L161.239 19.4748L161.255 13.1516L163.56 13.1724C167.285 13.2059 168.52 13.3303 169.431 13.7635C170.112 14.0871 170.385 14.5558 170.508 15.6097C170.625 16.6175 170.637 16.6763 170.772 16.8101C170.934 16.9715 171.252 16.9714 171.414 16.8099C171.595 16.6295 171.663 16.3127 171.741 15.2863C171.779 14.7882 171.838 14.0168 171.872 13.5721C171.906 13.1273 171.993 12.5015 172.064 12.1813C172.207 11.5405 172.233 10.9795 172.13 10.7862C172.047 10.6325 171.666 10.6199 171.403 10.7621ZM86.6363 10.9847C86.4395 11.0629 86.1834 11.4193 85.999 11.8714C85.8679 12.1926 83.9401 17.434 81.0314 25.3776C75.7001 39.9371 75.3712 40.8235 75.1037 41.3555C74.5845 42.3878 73.963 43.0926 73.2604 43.4459C72.8111 43.6719 72.3566 43.7667 71.4516 43.8233C71.0941 43.8456 70.7218 43.904 70.6241 43.9531C70.2463 44.1429 70.3533 44.6547 70.8026 44.807C71.0136 44.8784 71.4757 44.8846 73.3017 44.8399C75.8375 44.7778 76.4495 44.7754 78.7015 44.8182L80.3027 44.8486L80.471 44.6918C80.6803 44.4968 80.6974 44.1772 80.5077 44.0062C80.4091 43.9172 80.2182 43.8758 79.7447 43.8405C79.0153 43.7861 78.7009 43.6893 78.4316 43.4361C78.0985 43.1229 78.0638 42.8631 78.2249 41.8884C78.3708 41.0055 78.4047 40.8988 80.6055 34.4015C81.0214 33.1741 81.4091 32.1335 81.4673 32.089C81.5498 32.0259 82.6165 32.0081 86.2909 32.0081C90.7038 32.0081 91.0149 32.0154 91.1053 32.1213C91.1585 32.1835 91.292 32.4819 91.4019 32.7843C91.5813 33.2776 92.5907 35.9454 93.8862 39.3502C95.0128 42.3109 95.3144 43.1483 95.3144 43.3155C95.3144 43.5177 95.1534 43.7813 95.0299 43.7813C94.8774 43.7813 94.6651 44.0746 94.6651 44.2852C94.6651 44.7733 95.13 44.8217 99.9682 44.8369C103.647 44.8485 103.682 44.8474 103.864 44.7128C104.16 44.4941 104.153 44.0586 103.852 43.9217C103.76 43.88 103.518 43.8456 103.315 43.8451C102.738 43.8438 101.763 43.6166 101.249 43.3636C100.912 43.1976 100.667 43.0097 100.339 42.6664C99.223 41.4954 98.758 40.5176 96.2551 34.0781C96.027 33.4911 95.6189 32.4431 95.3483 31.7493C95.0778 31.0556 94.3281 29.1198 93.6824 27.4476C93.0367 25.7754 92.3832 24.0871 92.2303 23.6957C92.0773 23.3043 91.2593 21.1794 90.4124 18.9735C87.437 11.2238 87.4511 11.2581 87.1666 11.0802C86.9669 10.9553 86.7903 10.9234 86.6363 10.9847ZM113.287 11.0192C113.097 11.1236 112.997 11.2732 112.904 11.5919C112.841 11.8063 112.803 12.1434 111.84 20.8494C111.497 23.9448 110.971 28.6896 110.671 31.3936C110.371 34.0975 110.021 37.2704 109.892 38.4445C109.51 41.9225 109.443 42.3154 109.122 42.9403C108.826 43.5182 108.334 43.7478 107.23 43.8225C106.542 43.869 106.298 43.947 106.25 44.1355C106.187 44.3871 106.247 44.5703 106.439 44.7128C106.607 44.8372 106.703 44.848 107.575 44.8419C108.71 44.8338 112.581 44.8343 114.285 44.8427C115.409 44.8482 115.506 44.8394 115.64 44.7192C115.934 44.4551 115.954 44.1093 115.683 43.9635C115.605 43.9214 115.23 43.8513 114.848 43.8075C113.668 43.6718 113.457 43.61 113.141 43.3067C112.967 43.1394 112.833 42.9394 112.789 42.7786C112.654 42.2909 112.705 41.0969 113.009 37.6036C113.101 36.5362 113.233 35.008 113.302 34.2075C113.507 31.8253 113.745 29.0568 113.918 27.0595C114.007 26.0277 114.154 24.3102 114.244 23.2429C114.334 22.1755 114.429 21.1597 114.455 20.9854L114.503 20.6686L114.854 21.4382C115.488 22.8274 116.772 25.5927 117.961 28.1268C118.603 29.4966 119.285 30.9521 119.475 31.3612C119.883 32.2355 123.397 39.2427 124.553 41.4848C125.609 43.5342 126.017 44.2636 126.262 44.5468C126.437 44.7476 126.505 44.781 126.742 44.781C127.215 44.781 127.182 44.837 129.213 40.5469C129.828 39.2483 130.446 37.9403 130.586 37.6404C130.726 37.3404 131.421 35.8704 132.13 34.3737C132.839 32.8769 134.045 30.3278 134.81 28.709C135.575 27.0902 136.782 24.5372 137.492 23.0356C138.202 21.5341 138.796 20.3181 138.811 20.3334C138.826 20.3487 138.893 20.9368 138.959 21.6404C139.024 22.3439 139.137 23.5453 139.208 24.3102C139.28 25.0752 139.412 26.487 139.503 27.4476C139.593 28.4082 139.725 29.82 139.795 30.585C139.865 31.3499 139.995 32.7471 140.084 33.69C141.02 43.6216 140.992 43.2394 140.779 43.4417C140.713 43.5039 140.611 43.584 140.552 43.6195C140.493 43.6551 140.426 43.7769 140.404 43.8902C140.372 44.0552 140.397 44.1282 140.526 44.2576C140.738 44.4683 141.028 44.541 141.972 44.6201C143.736 44.7678 148.897 44.9267 149.499 44.8517C150.095 44.7776 150.42 44.3627 150.16 44.0088C150.086 43.907 149.937 43.8797 149.209 43.834C148.251 43.7739 147.366 43.6122 146.775 43.3895C146.25 43.1915 145.741 42.6816 145.422 42.0347C144.949 41.0749 144.882 40.6591 144.209 34.4662C144.029 32.8118 143.824 30.9488 143.754 30.3262C143.684 29.7036 143.48 27.8406 143.3 26.1862C143.121 24.5318 142.931 22.7998 142.878 22.3373C142.825 21.8748 142.635 20.1427 142.455 18.4883C141.676 11.3288 141.716 11.6458 141.541 11.2989C141.318 10.8569 140.771 10.8499 140.46 11.2854C140.387 11.3876 140.02 12.126 139.645 12.926C139.271 13.7261 138.621 15.1084 138.202 15.9979C137.783 16.8873 137.258 18.008 137.034 18.4883C136.81 18.9687 136.49 19.6527 136.321 20.0085C135.994 20.7005 135.952 20.7907 134.908 23.0165C134.533 23.817 133.985 24.9814 133.692 25.604C133.398 26.2266 132.96 27.1581 132.718 27.674C132.475 28.1899 131.956 29.2961 131.563 30.1321C130.099 33.248 128.405 36.856 127.993 37.733C127.76 38.2311 127.559 38.6499 127.547 38.6637C127.535 38.6775 127.498 38.6193 127.465 38.5344C127.431 38.4494 126.988 37.5357 126.481 36.5039C125.974 35.4721 125.375 34.2495 125.152 33.787C124.928 33.3245 124.431 32.3057 124.048 31.5229C123.664 30.7402 123.109 29.6049 122.814 29.0001C122.173 27.6856 121.339 25.978 120.477 24.2132C119.518 22.2515 118.724 20.6249 118.237 19.6204C117.995 19.1223 117.433 17.9725 116.989 17.0652C116.545 16.158 115.862 14.7619 115.472 13.963C114.295 11.5535 114.12 11.2244 113.951 11.1049C113.714 10.938 113.488 10.9087 113.287 11.0192ZM214.761 16.7929C214.582 16.8948 214.148 16.9035 209.285 16.9035H204.003L203.877 17.058C203.743 17.2229 203.762 17.43 203.923 17.5572C203.973 17.5965 204.228 17.6448 204.49 17.6646C205.405 17.7335 205.736 17.93 205.912 18.5074C205.978 18.7225 205.994 20.6137 205.992 27.5446C205.989 35.1898 205.975 36.3884 205.887 36.9244C205.707 38.0068 205.616 38.1171 204.836 38.1984C204.545 38.2287 204.402 38.2792 204.289 38.3915C204.126 38.5544 204.136 38.7649 204.316 38.9062C204.382 38.9588 205.32 38.9808 207.605 38.9833C211.115 38.9872 211.092 38.9896 211.092 38.6126C211.092 38.5111 211.046 38.39 210.99 38.3435C210.934 38.2968 210.537 38.2234 210.104 38.1792C209.171 38.0842 209.036 38.0109 208.865 37.5056C208.69 36.989 208.629 35.3597 208.627 31.2062L208.625 27.5904L210.914 27.6283C212.319 27.6515 213.303 27.6947 213.462 27.7401C214.103 27.9227 214.422 28.338 214.503 29.0971C214.554 29.5735 214.667 29.744 214.932 29.744C215.239 29.744 215.287 29.5748 215.369 28.2138C215.41 27.5323 215.489 26.7345 215.545 26.4408C215.657 25.8518 215.634 25.6412 215.446 25.5412C215.269 25.4464 215.046 25.5487 214.837 25.8214C214.734 25.9559 214.561 26.0839 214.419 26.1298C214.251 26.1842 213.331 26.2161 211.401 26.2344L208.625 26.2606V22.3098V18.359L210.102 18.362C210.915 18.3637 211.95 18.3884 212.404 18.417C213.125 18.4624 213.275 18.4925 213.602 18.6565C213.808 18.7597 214.03 18.9181 214.095 19.0086C214.161 19.0991 214.262 19.4193 214.32 19.7202C214.432 20.3056 214.538 20.4942 214.755 20.4927C215.092 20.4902 215.173 20.2825 215.253 19.218C215.29 18.7277 215.363 18.0792 215.414 17.7768C215.465 17.4744 215.508 17.149 215.508 17.0536C215.508 16.698 215.149 16.5726 214.761 16.7929ZM190.638 18.0418C186.862 18.7072 183.987 21.2754 182.824 25.0218C182.495 26.0819 182.384 26.7309 182.344 27.8237C182.19 32.0082 184.266 35.7287 187.672 37.3743C189.026 38.0281 190.152 38.3216 191.632 38.4066C195.037 38.6022 197.793 37.6388 199.927 35.5071C201.558 33.8776 202.47 32.0736 202.889 29.647C203.044 28.7463 203.044 26.7122 202.888 25.8628C202.485 23.6637 201.631 22.0162 200.159 20.6009C198.861 19.3526 197.08 18.4708 195.086 18.0895C194.011 17.8839 191.676 17.8589 190.638 18.0418ZM86.1949 18.1811C86.2869 18.4794 89.637 27.9746 90.1148 29.2912C90.2503 29.6648 90.349 29.9922 90.334 30.0189C90.3045 30.0717 82.1328 30.088 82.1328 30.0354C82.1328 30.0177 82.189 29.8358 82.2578 29.6311C82.3265 29.4263 82.7771 28.0508 83.2589 26.5743C84.4483 22.9299 85.6845 19.1458 85.8846 18.5369C85.9753 18.2612 86.072 18.0355 86.0997 18.0355C86.1273 18.0355 86.1701 18.101 86.1949 18.1811ZM192.326 28.0945C192.326 32.9865 192.303 36.989 192.273 36.989C192.148 36.989 191.419 36.8438 191.076 36.7503L190.703 36.6484L190.719 28.005L190.735 19.3616L191.222 19.2883C191.49 19.248 191.848 19.2116 192.018 19.2075L192.326 19.1999V28.0945ZM194.047 19.3638C194.261 19.4109 194.517 19.4799 194.615 19.5171L194.794 19.5848V28.2169V36.8489L194.467 36.9188C194.287 36.9572 193.893 37.0075 193.59 37.0307L193.041 37.0728V28.1376V19.2024L193.349 19.2402C193.519 19.261 193.833 19.3167 194.047 19.3638ZM190.054 27.922C190.054 32.5057 190.035 36.2741 190.013 36.2962C189.925 36.384 189.154 35.9205 188.455 35.3601C186.834 34.0599 185.759 32.0236 185.335 29.4529C185.174 28.4725 185.172 26.3453 185.333 25.4746C185.58 24.1324 186.015 22.9902 186.616 22.1029C186.975 21.5719 187.707 20.817 188.203 20.4644C188.743 20.0808 189.703 19.6077 189.972 19.5926C190.037 19.5889 190.054 21.2955 190.054 27.922ZM196.042 20.1414C198.064 21.3215 199.417 23.4029 199.93 26.1215C200.064 26.8302 200.082 27.122 200.081 28.4826C200.08 29.827 200.06 30.1435 199.93 30.8437C199.514 33.0745 198.642 34.651 197.241 35.7027C196.736 36.0818 195.76 36.6009 195.552 36.6009C195.451 36.6009 195.443 36.022 195.443 28.2562C195.443 20.6901 195.453 19.9115 195.546 19.9115C195.602 19.9115 195.826 20.015 196.042 20.1414ZM1.85231 52.2543C1.54667 52.6162 1.34355 53.3267 0.640508 56.4924C-0.0142253 59.4408 -0.0998092 60.0438 0.0858381 60.4014C0.339991 60.891 0.975763 60.6923 1.26654 60.0324C1.7651 58.9009 2.38795 57.8938 2.88594 57.414C3.51236 56.8104 4.40462 56.4685 5.80246 56.2964C6.60064 56.1982 9.57411 56.1137 14.7472 56.0422L17.5231 56.0038L17.5222 73.2933C17.5211 96.294 17.4693 98.7209 16.9352 100.794C16.5685 102.218 16.0942 102.537 14.1016 102.702C13.3778 102.762 13.1371 102.863 13.068 103.137C13.0065 103.382 13.1165 103.683 13.3237 103.837C13.4915 103.962 13.6042 103.975 14.7192 103.992C15.3864 104.002 16.9403 103.971 18.1725 103.922C20.0152 103.85 20.8159 103.849 22.6854 103.916C23.9354 103.96 25.7617 103.998 26.7438 104C28.3612 104.002 28.555 103.991 28.8002 103.88C29.0993 103.745 29.2113 103.59 29.2113 103.313C29.2113 103.062 29.0581 102.864 28.8053 102.787C28.6893 102.752 28.2445 102.704 27.8168 102.682C26.9091 102.633 25.7024 102.492 25.3028 102.387C24.2319 102.105 23.7633 101.331 23.5297 99.4562C23.2482 97.197 23.198 93.2385 23.1828 72.1609L23.1712 56.003L94.8105 56.0452C134.212 56.0684 179.731 56.1106 195.963 56.139C222.056 56.1846 225.572 56.2022 226.312 56.2912C229.201 56.639 230.923 57.2127 231.914 58.1577C232.421 58.641 232.566 58.9709 232.654 59.8366C232.763 60.9134 232.853 61.1388 233.214 61.2413C233.525 61.3296 233.828 61.156 233.939 60.8265C234.069 60.4402 233.997 59.8207 233.666 58.4977C233.007 55.8541 232.719 54.3345 232.717 53.4779C232.715 52.9847 232.623 52.6678 232.453 52.5774C232.275 52.4823 231.907 52.5018 231.222 52.6429C230.883 52.7128 230.123 52.8361 229.534 52.9169L228.462 53.064H118.171H7.88036L6.19207 52.9154C4.37599 52.7555 3.86248 52.6578 2.93055 52.2948C2.19718 52.009 2.06367 52.0041 1.85231 52.2543ZM117.554 63.4214C113.921 63.7761 111.012 64.8531 108.396 66.8123C107.652 67.3693 106.505 68.4532 105.867 69.2027C103.077 72.4794 101.421 76.9243 101.419 81.1385C101.417 86.0933 103.187 90.7276 106.319 93.969C109.059 96.8056 112.662 98.4743 116.97 98.9019C117.987 99.0029 120.213 99.0034 121.158 98.9029C125.553 98.4358 129.302 96.6623 132.198 93.6811C135.057 90.7374 136.724 87.0254 137.205 82.5293C137.308 81.567 137.309 79.2675 137.207 78.3569C136.904 75.6385 136.149 73.2997 134.914 71.2539C132.823 67.7882 129.467 65.3068 125.282 64.1318C123.426 63.6109 122.085 63.4377 119.73 63.4147C118.676 63.4044 117.697 63.4075 117.554 63.4214ZM142.702 63.4949C142.507 63.7182 142.457 63.8985 142.393 64.6212C142.353 65.0775 142.325 70.414 142.32 78.745C142.315 86.1097 142.288 92.7176 142.26 93.4291C142.18 95.4822 142.027 96.2486 141.6 96.7328C141.344 97.0232 140.794 97.1911 139.774 97.2906C138.896 97.3762 138.756 97.4486 138.756 97.8167C138.756 97.9647 138.808 98.0807 138.924 98.1886L139.092 98.3454L140.953 98.3146C143.68 98.2695 144.925 98.2741 147.1 98.3374C149.194 98.3983 149.507 98.37 149.695 98.1028C149.83 97.9095 149.82 97.6533 149.669 97.4924C149.567 97.3823 149.432 97.3512 148.906 97.3149C148.13 97.2614 147.106 97.1 146.835 96.9884C146.079 96.6766 145.682 95.7042 145.514 93.7526C145.477 93.3256 145.417 91.7828 145.38 90.3241C145.343 88.8654 145.283 86.7259 145.248 85.5696C145.213 84.4133 145.155 82.332 145.12 80.9444C145.084 79.5568 145.008 76.8134 144.952 74.8478C144.895 72.8823 144.858 71.2463 144.87 71.2122C144.882 71.1782 146.096 72.4807 147.568 74.1067C149.039 75.7328 150.325 77.1507 150.425 77.2577C150.524 77.3647 150.885 77.7577 151.226 78.131C153.847 80.9984 156.833 84.2159 158.49 85.9572C162.503 90.174 163.898 91.6031 167.519 95.2117C170.037 97.7208 170.743 98.3899 171.032 98.5371C171.651 98.8533 171.891 98.6842 171.996 97.8572C172.068 97.2916 172.128 89.4765 172.145 78.5186C172.152 74.2314 172.176 69.8213 172.198 68.7184C172.235 66.9109 172.253 66.6716 172.378 66.2926C172.652 65.4629 173.112 65.1833 174.398 65.0652C175.126 64.9985 175.335 64.8827 175.366 64.5315C175.378 64.3869 175.347 64.2656 175.282 64.2C175.045 63.9639 174.721 63.9438 172.521 64.0283C170.838 64.093 169.947 64.0933 168.119 64.0296C166.858 63.9857 165.666 63.9697 165.471 63.9941C165.013 64.0511 164.771 64.2437 164.78 64.5456C164.791 64.9479 164.93 65.0093 165.965 65.0725C166.914 65.1304 167.571 65.2478 167.951 65.427C168.463 65.6691 168.812 66.293 168.946 67.204C169.036 67.8204 169.118 70.4062 169.242 76.6103C169.297 79.3498 169.37 82.7265 169.404 84.1141C169.509 88.3735 169.556 91.5209 169.516 91.5209C169.496 91.5209 168.391 90.3346 167.062 88.8848C165.732 87.435 164.377 85.9577 164.05 85.6019C163.723 85.2461 162.961 84.4165 162.357 83.7583C161.034 82.3182 158.898 80.0173 158.303 79.3919C157.307 78.346 149.587 70.0543 146.682 66.9105C145.697 65.845 144.648 64.7097 144.351 64.3877C143.641 63.6194 143.334 63.3854 143.035 63.3833C142.892 63.3823 142.763 63.4256 142.702 63.4949ZM215.735 63.4226C213.013 63.8373 211.4 64.5512 209.977 65.9706C208.948 66.9969 208.331 68.0982 207.964 69.5629C207.762 70.3698 207.755 70.4473 207.757 71.694C207.76 72.7673 207.784 73.1002 207.901 73.6468C208.343 75.7187 209.318 77.3715 211.284 79.3827C212.235 80.3554 212.864 80.9108 215.118 82.7664C217.647 84.8478 218.874 86.0495 219.634 87.1865C220.104 87.8894 220.308 88.3178 220.555 89.1184C220.717 89.6432 220.727 89.756 220.728 90.971C220.729 92.1884 220.719 92.2956 220.561 92.7863C219.944 94.6933 218.607 96.0253 216.741 96.5904C216.011 96.8117 215.443 96.8872 214.501 96.8883C211.682 96.8916 209.535 95.7999 208.59 93.882C208.199 93.089 208.042 92.4414 208 91.4562C207.96 90.5187 207.906 90.3322 207.642 90.2236C207.408 90.1268 207.19 90.2076 207.03 90.4505C206.848 90.7275 206.616 93.9647 206.638 95.9214C206.648 96.7778 206.663 96.8895 206.809 97.1828C206.956 97.4785 207.017 97.5283 207.56 97.8005C209.143 98.5926 211.13 98.986 213.527 98.9814C215.411 98.9778 216.845 98.744 218.3 98.2029C221.04 97.1843 222.995 95.1708 223.909 92.4265C224.266 91.3537 224.347 90.8834 224.384 89.6449C224.433 88.0608 224.237 86.7851 223.775 85.6666C222.764 83.2213 221.124 81.3845 217.134 78.2265C213.879 75.6505 212.27 74.033 211.581 72.6437C211.198 71.8729 211.072 71.2066 211.112 70.1739C211.132 69.661 211.191 69.1404 211.255 68.9125C211.451 68.2111 211.852 67.4912 212.332 66.9791C213.503 65.7294 215.011 65.2444 217.27 65.3904C218.618 65.4774 219.817 65.828 220.649 66.3786C221.096 66.6744 221.682 67.2806 221.865 67.6375C222.038 67.9752 222.292 68.9107 222.392 69.5752C222.487 70.2114 222.558 70.3958 222.743 70.4944C222.958 70.609 223.17 70.5557 223.325 70.3484C223.448 70.1829 223.464 70.0446 223.506 68.7636C223.531 67.9916 223.586 66.6771 223.628 65.8425L223.704 64.3249L223.531 64.1767C223.403 64.067 223.277 64.0285 223.048 64.0285C222.877 64.0285 222.419 63.9684 222.029 63.8948C219.554 63.4281 219.672 63.4414 217.748 63.4165C216.748 63.4035 215.842 63.4063 215.735 63.4226ZM198.722 63.7701C198.147 64.0333 197.415 64.0609 190.995 64.0609C187.638 64.0609 183.952 64.0463 182.803 64.0285C180.757 63.9968 180.711 63.999 180.53 64.132C180.245 64.342 180.241 64.7917 180.523 64.9417C180.601 64.9836 181.032 65.0414 181.48 65.0703C182.458 65.1333 183.047 65.3018 183.429 65.6274C183.919 66.0453 184.051 66.4842 184.146 68.0068C184.226 69.2893 184.224 90.4847 184.145 92.3895C184.02 95.3739 183.783 96.5662 183.239 96.9523C183.026 97.1032 182.427 97.2426 181.693 97.3116C181.295 97.3491 181.201 97.3814 181.092 97.5198C180.836 97.8443 180.988 98.1979 181.436 98.3182C181.642 98.3736 182.329 98.3715 184.21 98.3097C186.158 98.2457 187.061 98.2442 188.3 98.3028C191.072 98.434 194.887 98.5188 196.969 98.4955C198.729 98.4757 199.015 98.4584 199.241 98.3575C199.939 98.0466 200.116 97.5349 200.473 94.7927C200.718 92.9134 200.739 92.4463 200.594 92.1677C200.471 91.9318 200.303 91.865 200.016 91.9369C199.804 91.9899 199.684 92.2509 199.536 92.981C199.299 94.1573 198.938 94.9342 198.432 95.3581C197.939 95.7717 197.089 96.0634 196.06 96.1727C194.249 96.3649 191.338 96.3018 190.345 96.0487C189.168 95.7488 188.722 95.2295 188.527 93.9312C188.445 93.3823 188.432 92.3364 188.446 87.182L188.463 81.0824L189.534 81.0957C191.285 81.1176 194.398 81.2367 194.956 81.3033C195.784 81.4019 196.253 81.5872 196.649 81.972C197.062 82.3737 197.18 82.7079 197.257 83.6987C197.286 84.075 197.344 84.4458 197.385 84.5227C197.532 84.7959 197.986 84.796 198.19 84.5228C198.303 84.3702 198.326 84.1951 198.374 83.0673C198.435 81.6522 198.574 80.1764 198.723 79.3485C198.928 78.219 198.927 78.0525 198.718 77.8439C198.497 77.6244 198.257 77.7141 197.791 78.1896C197.071 78.9234 196.824 78.9582 191.921 79.0155L188.43 79.0563V72.6098V66.1632L189.583 66.1653C190.217 66.1665 191.671 66.1947 192.813 66.2281C194.61 66.2806 194.992 66.31 195.638 66.4453C196.788 66.6862 197.224 66.9237 197.556 67.4885C197.732 67.7875 197.911 68.5787 197.911 69.0637C197.912 69.5465 198.02 69.8363 198.242 69.9507C198.474 70.0705 198.641 70.0296 198.814 69.8103C199 69.5752 199.065 69.156 199.177 67.4775C199.242 66.4908 199.331 65.7078 199.438 65.1884C199.625 64.2712 199.637 63.9827 199.498 63.7842C199.373 63.6067 199.091 63.6016 198.722 63.7701ZM31.1806 64.0089C30.9768 64.0484 30.7048 64.3438 30.7048 64.5255C30.7048 64.7362 30.9665 64.9829 31.2332 65.0236C31.3533 65.042 31.7291 65.071 32.0684 65.0881C32.7962 65.1246 33.4274 65.304 33.8166 65.5849C34.1349 65.8146 34.3731 66.2696 34.4808 66.854C34.5913 67.4537 34.6342 72.0938 34.622 82.1455C34.6151 87.8243 34.5826 92.0925 34.5391 93.013C34.4328 95.2609 34.2184 96.3435 33.7846 96.8218C33.5255 97.1074 33.3097 97.1762 32.3226 97.2881C31.5463 97.376 31.3995 97.4671 31.4316 97.8414C31.4458 98.0073 31.5039 98.1127 31.6348 98.2096C31.8029 98.3342 31.8964 98.3446 32.7711 98.3363C33.7713 98.3268 39.2218 98.3286 41.463 98.3392C42.6983 98.3451 42.7837 98.3376 42.9565 98.2094C43.2314 98.0054 43.293 97.7716 43.1294 97.5529C43.0082 97.3907 42.9457 97.3708 42.4187 97.3255C41.2482 97.2252 40.2951 97.0765 40.0634 96.9581C39.3358 96.5864 39.0992 95.7865 38.9526 93.2027C38.9173 92.5801 38.888 89.4289 38.8875 86.2001L38.8865 80.3294L48.4806 80.3458L58.0746 80.3622L58.0648 86.2488C58.0545 92.3961 58.004 94.0086 57.7808 95.3214C57.6374 96.1644 57.3746 96.8022 57.0955 96.9843C56.904 97.1093 56.2685 97.2478 55.5965 97.311C55.2305 97.3454 55.1015 97.3864 54.9913 97.5034C54.7951 97.7114 54.8339 98.0305 55.0772 98.2096C55.2568 98.3419 55.3087 98.3446 57.0901 98.3131C59.6916 98.2671 61.2754 98.2727 63.7239 98.3368C65.9907 98.3961 66.2941 98.3725 66.552 98.1156C66.7198 97.9484 66.7119 97.7096 66.5323 97.5156C66.3987 97.3713 66.3084 97.3515 65.4771 97.2836C64.9771 97.2428 64.3781 97.1774 64.146 97.1383C62.9511 96.9374 62.6534 96.3931 62.4422 94.0241C62.324 92.6991 62.3233 67.6553 62.4413 66.9194C62.6513 65.6108 63.1057 65.2193 64.5906 65.0675C65.2201 65.0031 65.4703 64.9007 65.5411 64.6782C65.606 64.4746 65.4361 64.2019 65.1608 64.068C64.9188 63.9503 64.823 63.9487 62.5816 64.027C60.7094 64.0923 59.7265 64.0922 57.5594 64.0263C55.0548 63.9503 54.8446 63.9523 54.5743 64.0551C54.0433 64.2571 54.0282 64.8292 54.5496 64.9873C54.667 65.0229 55.0698 65.0675 55.4448 65.0864C56.5947 65.1443 57.3665 65.4753 57.6521 66.0331C58.0224 66.7561 58.0724 67.7183 58.0971 74.5888L58.1101 78.1952H48.4983H38.8865L38.888 73.2304C38.8898 67.0859 38.9322 66.451 39.3869 65.7666C39.671 65.3388 40.0784 65.1963 41.4973 65.028C41.899 64.9804 42.0904 64.8241 42.0826 64.5501C42.0793 64.434 42.0263 64.2835 41.9647 64.2158C41.7361 63.9641 41.4506 63.9466 38.9527 64.0308C37.1264 64.0923 36.0888 64.0938 34.4385 64.0369C32.3107 63.9637 31.4513 63.9563 31.1806 64.0089ZM70.6839 64.0269C70.3169 64.1421 70.1404 64.4211 70.251 64.7109C70.3419 64.9492 70.6401 65.0418 71.4511 65.0833C73.0155 65.1634 73.7446 65.6479 73.9523 66.7454C74.1057 67.556 74.1435 70.1305 74.1429 79.7477C74.1421 92.044 74.0871 94.2808 73.7499 95.7256C73.5923 96.4007 73.4125 96.7839 73.1735 96.9534C72.9587 97.1058 72.3574 97.2499 71.6783 97.3118C71.3193 97.3445 71.153 97.3913 71.0452 97.4901C70.732 97.7773 70.9611 98.2581 71.4552 98.3505C71.5904 98.3758 72.7698 98.3609 74.076 98.3175C75.8392 98.2591 76.911 98.2565 78.2367 98.3076C80.4943 98.3947 81.7737 98.3955 82.0822 98.3102C82.3606 98.2332 82.5224 98.0387 82.5224 97.7811C82.5224 97.456 82.349 97.3644 81.6379 97.3138C80.4053 97.2262 79.5875 97.0871 79.2905 96.9145C78.5464 96.4824 78.3557 95.6227 78.2374 92.1677C78.1628 89.9892 78.1504 83.9731 78.2205 83.9303C78.2472 83.9138 79.5669 83.9221 81.153 83.9485L84.0368 83.9966L84.2387 84.2171C84.3498 84.3383 85.1843 85.4564 86.0932 86.7016C89.1125 90.8385 91.4416 93.8767 92.599 95.1885C94.4706 97.3096 95.9554 98.1104 98.3861 98.3096C99.4858 98.3997 103.904 98.3989 104.231 98.3085C104.714 98.175 104.876 97.8053 104.58 97.5111C104.447 97.3786 104.344 97.3567 103.655 97.315C102.244 97.2297 101.204 96.979 100.223 96.4882C97.9458 95.3489 96.1634 93.4255 89.5439 84.9649L87.7802 82.7106L88.6254 81.8387C91.0246 79.3637 92.3732 77.068 92.9126 74.5403C93.088 73.7183 93.1604 71.894 93.0468 71.1601C92.8671 69.9992 92.3704 68.8049 91.635 67.7654C90.1507 65.6672 87.9174 64.5345 84.4379 64.1154C83.6028 64.0147 83.0983 64.002 80.899 64.0265C77.0722 64.0692 74.8445 64.066 72.7498 64.0152C71.6876 63.9893 70.787 63.9944 70.6839 64.0269ZM225.768 64.5124V64.7401H226.319H226.871V66.1956V67.6511H227.099H227.326V66.1981V64.7452L227.894 64.7265L228.462 64.7078V64.5137V64.3196L227.115 64.3022L225.768 64.2846V64.5124ZM228.928 64.3304C228.904 64.3541 228.884 65.111 228.884 66.0123V67.6511H229.119H229.354L229.329 66.2954C229.315 65.5498 229.325 64.9769 229.351 65.0222C229.395 65.1015 230.248 67.5839 230.248 67.6342C230.248 67.6478 230.355 67.6498 230.486 67.6388L230.725 67.6187L231.164 66.3346C231.405 65.6283 231.62 65.034 231.64 65.0139C231.66 64.9938 231.677 65.5789 231.677 66.3142V67.6511H231.871H232.066V65.9656V64.2802L231.761 64.2999L231.455 64.3196L231.013 65.6134C230.771 66.325 230.555 66.9508 230.534 67.0042C230.513 67.0583 230.353 66.6861 230.173 66.1632C229.996 65.6474 229.776 65.0142 229.684 64.7563L229.516 64.2873H229.244C229.094 64.2873 228.951 64.3067 228.928 64.3304ZM118.415 81.0262L118.431 96.6959H118.268C117.978 96.6959 116.664 96.388 115.996 96.1636L115.347 95.9456L115.33 80.8647C115.315 66.5429 115.32 65.7822 115.428 65.7506C115.985 65.5873 117.883 65.3228 118.301 65.35C118.387 65.3557 118.4 67.1512 118.415 81.0262ZM120.574 65.4215C121.025 65.464 122.275 65.7195 122.652 65.8458C123.004 65.964 123.033 66.0339 122.73 66.0339H122.457V81.3566V96.6793L122.212 96.7185C121.6 96.8158 120.39 96.8881 120.014 96.8496L119.6 96.8074V81.0609V65.3143L119.876 65.348C120.028 65.3665 120.342 65.3996 120.574 65.4215ZM82.9769 65.9951C83.9204 66.1648 84.9611 66.5818 85.6931 67.0835C86.1805 67.4176 86.9667 68.2045 87.313 68.7048C88.2643 70.0795 88.7715 71.7149 88.8782 73.7519C89.0422 76.8843 88.3108 79.4467 86.8478 80.8643C86.1456 81.5448 85.3642 81.9205 84.3081 82.0855C83.5641 82.2017 81.0337 82.1203 80.0549 81.9486C79.1055 81.7821 78.5222 81.6022 78.3179 81.413L78.1718 81.2776V73.7975C78.1718 67.9147 78.1891 66.294 78.2529 66.2082C78.4944 65.8836 81.5822 65.7443 82.9769 65.9951ZM114.145 80.7503C114.145 88.7732 114.126 95.3374 114.103 95.3374C114.02 95.3374 113.197 94.8593 112.782 94.5695C110.477 92.9621 108.661 90.6084 107.536 87.769C106.119 84.1935 105.726 79.7131 106.49 75.8358C107.283 71.8078 109.351 68.7104 112.406 66.9736C112.975 66.65 113.961 66.1803 114.097 66.1677C114.123 66.1652 114.145 72.7274 114.145 80.7503ZM124.636 66.6423C126.515 67.5689 128.285 69.0991 129.543 70.8855C131.14 73.1521 132.163 76.1711 132.453 79.4677C132.539 80.4518 132.541 82.9551 132.456 83.9847C131.972 89.8281 129.495 93.8821 125.243 95.7896C124.767 96.0031 123.757 96.3724 123.65 96.3724C123.637 96.3724 123.626 89.5899 123.626 81.3002C123.626 68.9347 123.641 66.2279 123.711 66.2279C123.757 66.2279 124.174 66.4144 124.636 66.6423Z" fill="white"/>
</svg>
