<svg width="120" height="120" viewBox="0 0 120 120" fill="none" xmlns="http://www.w3.org/2000/svg">
<path d="M49.1199 70.6875C49.395 70.8126 49.7075 70.9374 50.0574 71.0625C50.4324 71.1624 50.795 71.2125 51.1449 71.2125C52.22 71.2125 53.0825 70.9125 53.7324 70.3125C54.3825 69.6876 54.7074 68.8374 54.7074 67.7625V46.125H57.2949V67.5C57.2949 68.3751 57.1449 69.1875 56.8449 69.9375C56.57 70.6626 56.1575 71.2875 55.6074 71.8125C55.0824 72.3375 54.4449 72.75 53.6949 73.05C52.9449 73.35 52.1199 73.5 51.2199 73.5C50.07 73.5 49.0325 73.2375 48.1074 72.7125L49.1199 70.6875ZM61.3881 70.6875C61.6631 70.8126 61.9755 70.9374 62.3256 71.0625C62.7006 71.1624 63.063 71.2125 63.413 71.2125C64.488 71.2125 65.3505 70.9125 66.0005 70.3125C66.6506 69.6876 66.9755 68.8374 66.9755 67.7625V46.125H69.563V67.5C69.563 68.3751 69.413 69.1875 69.113 69.9375C68.838 70.6626 68.4255 71.2875 67.8755 71.8125C67.3505 72.3375 66.713 72.75 65.963 73.05C65.213 73.35 64.388 73.5 63.488 73.5C62.3381 73.5 61.3005 73.2375 60.3755 72.7125L61.3881 70.6875Z" fill="white"/>
<path fill-rule="evenodd" clip-rule="evenodd" d="M1.875 1.875H118.125V37.5H120V1.875V0H118.125H1.875H0V1.875V37.5H1.875V1.875ZM1.875 75H0V118.125V120H1.875H118.125H120V118.125V75H118.125V118.125H1.875V75Z" fill="white"/>
</svg>
