<svg width="158" height="40" viewBox="0 0 158 40" fill="none" xmlns="http://www.w3.org/2000/svg">
<path d="M12.906 7.56403C13.7704 6.18875 14.9296 4.9903 16.2852 4.08655C17.6212 4.97065 18.7607 6.14946 19.6252 7.50509C21.8846 10.6486 23.0241 14.4404 22.8669 18.3108C23.5742 18.8806 24.3011 19.4307 24.9888 20.0005C25.9711 20.8846 26.4426 22.2205 26.2069 23.5172C25.8729 25.1283 25.5585 26.7393 25.2049 28.3503C24.9691 29.0576 24.2029 29.4309 23.5153 29.1952C23.3974 29.1559 23.2795 29.0969 23.1813 29.0183C22.0417 28.1146 20.9415 27.1715 19.802 26.2481C17.857 28.0949 14.8314 28.1146 12.8667 26.2874C12.0612 26.8768 11.2949 27.6038 10.5091 28.2521C10.1554 28.5861 9.78214 28.9005 9.34991 29.1362C8.66228 29.4113 7.8764 29.0576 7.621 28.37C7.60135 28.3307 7.60135 28.2914 7.5817 28.2718C7.22806 26.7 6.83512 25.1283 6.48148 23.5565C6.20643 22.1812 6.6976 20.7863 7.75852 19.8826C8.36757 19.3914 8.99627 18.9002 9.62497 18.4091C9.80179 18.3108 9.70356 18.1144 9.7232 17.9768C9.64462 14.2636 10.7645 10.6093 12.906 7.56403ZM14.0259 12.4364C13.2007 13.4974 13.2989 15.0102 14.2616 15.9532C15.3618 17.0141 17.1104 17.0534 18.2499 16.0318C19.0554 15.3049 19.3305 14.1457 18.9572 13.1241C18.5643 12.1417 17.6605 11.4541 16.5996 11.3755C15.5976 11.2576 14.6349 11.6702 14.0259 12.4364Z" fill="#999999"/>
<path d="M12.5137 29.5881C12.5333 29.2148 12.8673 28.9398 13.221 28.9791C13.3192 28.9791 13.4174 29.0184 13.496 29.0577C15.2446 29.9025 17.2878 29.9025 19.0561 29.0577C19.3901 28.8808 19.783 29.0184 19.9598 29.3327C19.9991 29.3917 20.0187 29.4702 20.0384 29.5488C20.0384 30.5312 20.0384 31.5135 20.0384 32.4959C19.9991 32.8495 19.6651 33.1246 19.3115 33.0853C19.1936 33.0656 19.0953 33.0263 18.9971 32.9674C18.7024 32.712 18.447 32.4369 18.1523 32.1815C17.7004 33.0263 17.2878 33.8711 16.836 34.7159C16.6395 35.0303 16.2269 35.1089 15.9126 34.9124C15.834 34.8731 15.775 34.7945 15.7357 34.7356C15.2839 33.8908 14.8713 33.046 14.3998 32.2012C14.1247 32.4762 13.8497 32.7513 13.555 32.987C13.2603 33.2031 12.828 33.1246 12.6316 32.8102C12.5726 32.712 12.5333 32.6137 12.5137 32.4959C12.5137 31.5332 12.5137 30.5508 12.5137 29.5881Z" fill="#999999"/>
<path d="M16.2659 15.4227C17.0125 15.4423 17.6215 14.8529 17.6412 14.1064C17.6215 13.3598 17.0125 12.7704 16.2659 12.7704C15.5193 12.7507 14.9103 13.3401 14.8906 14.0867C14.8906 14.8333 15.5193 15.4423 16.2659 15.4227Z" fill="#999999"/>
<path d="M31.375 10.8843H33.5361V25.4426H42.554V27.4073H31.375V10.8843ZM44.4401 21.6901C44.4401 20.8453 44.6169 20.0004 44.9706 19.2342C45.3046 18.4876 45.7958 17.8196 46.3852 17.2695C47.6229 16.1104 49.2732 15.4817 50.9629 15.521C52.6132 15.462 54.2439 16.0711 55.462 17.2106C57.8392 19.5289 57.8982 23.3207 55.5799 25.698C55.5013 25.7766 55.4227 25.8552 55.3244 25.9338C54.0867 27.0929 52.4364 27.702 50.7467 27.6823C49.0768 27.7413 47.4657 27.1519 46.2476 26.032C45.0492 24.8925 44.3812 23.3207 44.4401 21.6901ZM46.6406 21.5722C46.6406 22.1616 46.7388 22.7313 46.9746 23.2618C47.6426 24.8532 49.2339 25.8748 50.9629 25.7962C53.2026 25.8355 55.0297 24.0477 55.069 21.8079C55.069 21.7687 55.069 21.7097 55.069 21.6704C55.128 19.3717 53.3205 17.4464 51.0022 17.3874C50.9236 17.3874 50.845 17.3874 50.7467 17.3874C49.6465 17.3678 48.5856 17.8 47.8194 18.5859C47.0531 19.3717 46.6209 20.4523 46.6406 21.5722ZM62.7116 22.5938C62.3777 22.9278 62.1812 23.3797 62.1419 23.8512C62.1026 24.1852 62.2598 24.4996 62.5348 24.6764C62.8688 24.8532 63.2225 24.9907 63.5958 25.0693C64.0476 25.1676 64.5388 25.2658 65.1086 25.3247C65.6783 25.3837 66.2481 25.4623 66.8375 25.5408C67.4269 25.6194 67.9966 25.7177 68.5467 25.8355C69.0772 25.9338 69.588 26.1106 70.0596 26.3267C70.924 26.6607 71.5134 27.4859 71.5134 28.4093C71.5134 29.7845 70.8258 31.0616 69.6863 31.8475C68.5271 32.6923 67.1322 33.1442 65.6783 33.1245C64.4013 33.1638 63.1439 32.8691 62.024 32.2797C60.9434 31.7885 60.2558 30.7079 60.2558 29.5291C60.2754 28.704 60.5898 27.9181 61.1203 27.2894C61.2774 27.0733 61.4542 26.8768 61.6507 26.7C60.688 26.4642 59.9807 25.5998 59.9611 24.6174C59.9807 23.3797 60.5309 22.2009 61.4935 21.415C61.1399 20.8845 60.9631 20.2558 60.9631 19.6075C60.9434 18.9985 61.081 18.409 61.3757 17.8589C61.6507 17.3678 62.024 16.9355 62.4759 16.5819C63.4386 15.855 64.637 15.4817 65.8551 15.5013C67.0536 15.462 68.2324 15.8353 69.1951 16.5819C69.8827 16.0121 70.7275 15.6585 71.592 15.5799C71.8867 15.5406 72.201 15.521 72.4958 15.5013L72.3975 17.3088C71.6509 17.3678 70.9437 17.5446 70.256 17.8589C70.5114 18.3698 70.649 18.9395 70.649 19.5093C70.649 20.079 70.5114 20.6488 70.2364 21.14C69.9613 21.6311 69.588 22.0634 69.1361 22.3974C68.1931 23.1046 67.0339 23.4779 65.8551 23.4386C64.7746 23.5172 63.6547 23.2029 62.7116 22.5938ZM63.2814 18.5073C63.1242 18.802 63.0456 19.1556 63.0653 19.4896C63.0653 19.8433 63.1242 20.1773 63.2814 20.4916C63.4386 20.7667 63.6547 21.0221 63.9101 21.1989C64.4995 21.5918 65.2068 21.7883 65.9141 21.7687C66.9161 21.8865 67.8984 21.3954 68.4092 20.5309C68.5664 20.2362 68.645 19.9022 68.6253 19.5682C68.6253 18.9002 68.311 18.2519 67.7805 17.8589C67.1911 17.466 66.4838 17.2499 65.7765 17.2892C64.7746 17.1517 63.7922 17.6428 63.2814 18.5073ZM63.3011 27.1322C62.7706 27.702 62.4759 28.4682 62.4955 29.2541C62.5152 29.9614 62.9867 30.5704 63.6547 30.8062C64.2441 31.1009 64.8924 31.2581 65.5604 31.2581C66.0713 31.2581 66.6017 31.2188 67.0929 31.1205C67.4858 31.0419 67.8395 30.9241 68.1931 30.7276C68.8807 30.4329 69.313 29.7649 69.3326 29.0183C69.3326 28.3307 68.6646 27.8592 67.3286 27.6234C66.7589 27.5252 66.0516 27.4269 65.2068 27.3483C64.362 27.2894 63.7333 27.2108 63.3011 27.1322ZM89.3331 15.9925C89.4706 18.2519 88.0757 20.3148 85.9538 21.0614L89.0973 27.4269H86.5825L83.7534 21.6704C82.9478 21.7883 82.1423 21.8472 81.3368 21.8472H77.0342V27.4269H74.873V10.904H81.6512C83.5373 10.7861 85.4037 11.1397 87.1326 11.906C88.6061 12.7115 89.4706 14.3225 89.3331 15.9925ZM81.6119 19.8826C82.9478 19.9612 84.2838 19.7057 85.4823 19.1556C86.5432 18.5269 87.1326 17.3481 87.0344 16.13C87.0344 14.2832 85.8359 13.2223 83.439 12.9865C82.7317 12.9079 82.0244 12.8687 81.2975 12.8687H77.0145V19.9022L81.6119 19.8826ZM91.9264 21.6901C91.9264 20.8453 92.1032 20.0004 92.4569 19.2342C92.7909 18.4876 93.2821 17.8196 93.8715 17.2695C95.1092 16.1104 96.7595 15.4817 98.4492 15.521C100.119 15.462 101.73 16.0711 102.948 17.1909C105.326 19.4896 105.384 23.2815 103.086 25.6587C103.007 25.7373 102.909 25.8355 102.83 25.9141C101.593 27.0733 99.9423 27.6823 98.2527 27.6627C96.5827 27.7216 94.9717 27.1322 93.7536 26.0124C92.5551 24.9121 91.9068 23.3208 91.9657 21.7097L91.9264 21.6901ZM94.1662 21.5525C94.1662 22.1419 94.2644 22.7117 94.5002 23.2422C95.1682 24.8336 96.7595 25.8552 98.4885 25.7766C100.728 25.7962 102.555 24.028 102.575 21.7883C102.575 21.749 102.575 21.6901 102.575 21.6508C102.634 19.3521 100.807 17.4464 98.5081 17.3874C98.4295 17.3874 98.3313 17.3874 98.2527 17.3874C97.1525 17.3678 96.0916 17.8 95.3253 18.5859C94.5395 19.3717 94.1269 20.4523 94.1662 21.5525ZM116.622 24.9318L117.035 26.5821C115.758 27.3876 114.245 27.7609 112.752 27.6627C111.161 27.7413 109.609 27.1519 108.508 26.0124C107.447 24.7943 106.917 23.2225 106.996 21.6311C106.956 20.0201 107.565 18.4483 108.685 17.2892C109.805 16.13 111.357 15.5013 112.968 15.5406C114.304 15.4817 115.62 15.855 116.721 16.6015L115.954 18.3501C115.031 17.6821 113.911 17.3285 112.752 17.3678C111.73 17.3481 110.768 17.8 110.159 18.6055C109.51 19.4307 109.176 20.4523 109.216 21.4936C109.176 22.5938 109.51 23.6744 110.198 24.5585C110.905 25.4033 111.966 25.8748 113.047 25.8159C114.285 25.7766 115.503 25.4819 116.622 24.9318ZM119.569 9.1947H121.79V20.8845L127.035 15.7567H129.629L124.167 21.1203L127.428 24.6371C128.077 25.3444 128.961 25.757 129.904 25.8355L129.57 27.4073C128.568 27.6038 127.526 27.368 126.701 26.7589C126.466 26.5625 126.249 26.3464 126.033 26.1106L121.829 21.5525V27.4073H119.609L119.569 9.1947ZM140.867 16.7784C141.299 17.2302 141.633 17.7607 141.829 18.3501C142.065 18.9788 142.203 19.6468 142.183 20.3148C142.163 21.14 142.085 21.9455 141.947 22.751H133.813C133.931 23.5958 134.344 24.3817 134.953 24.9711C135.66 25.5408 136.544 25.8355 137.468 25.7766C138.843 25.7962 140.199 25.5212 141.456 24.9907L141.829 26.6607C140.768 27.2108 139.59 27.5252 138.391 27.5841C137.861 27.643 137.311 27.6627 136.78 27.6627C136.073 27.6627 135.366 27.5252 134.698 27.2698C134.01 27.034 133.401 26.6214 132.91 26.1106C131.888 24.8532 131.377 23.2422 131.495 21.6311C131.456 20.0201 132.065 18.4483 133.185 17.2892C134.305 16.13 135.857 15.5013 137.468 15.5406C138.725 15.462 139.963 15.9139 140.867 16.7784ZM140.081 21.0221L140.12 20.3934C140.258 19.1949 139.609 18.0554 138.529 17.5642C137.664 17.2302 136.721 17.2499 135.876 17.6232C135.464 17.8196 135.11 18.0947 134.796 18.409C134.147 19.136 133.794 20.0594 133.754 21.0221H140.081ZM145.228 17.5446H143.971V16.0907L146.839 13.9296H147.429V15.7371H150.769V17.5249H147.429V22.2402C147.35 23.1636 147.527 24.1066 147.939 24.9514C148.45 25.5015 149.158 25.8355 149.904 25.8355L149.57 27.4073C147.232 27.702 145.857 26.7786 145.425 24.6371C145.287 23.9494 145.228 23.2618 145.228 22.5742V17.5446Z" fill="#999999"/>
</svg>
