<svg viewBox="0 0 111 30" fill="none" xmlns="http://www.w3.org/2000/svg">
    <path d="M98.2657 15.3503C98.2657 12.2388 100.796 9.71485 103.914 9.71485C106.081 9.71485 107.962 10.9317 108.911 12.7215L106.835 13.3942C106.513 12.9171 106.078 12.5264 105.568 12.2563C105.059 11.9862 104.491 11.8451 103.914 11.8453C101.976 11.8453 100.397 13.4152 100.397 15.3546C100.397 16.2847 100.768 17.1768 101.428 17.8346C102.087 18.4925 102.982 18.8624 103.915 18.8629C104.995 18.8629 105.961 18.3789 106.605 17.6147L105.369 17.8175L103.87 16.3218L110.332 15.2682L109.272 21.7051L107.764 20.2104L107.911 19.3255C107.385 19.8513 106.761 20.2685 106.073 20.553C105.386 20.8375 104.649 20.9838 103.904 20.9835C102.406 20.9824 100.969 20.3883 99.909 19.3317C98.8493 18.2751 98.2535 16.8424 98.2524 15.3481L98.2657 15.3503ZM32.9635 17.028C32.9532 17.7058 33.0764 18.2895 33.334 18.7822C33.5916 19.2749 33.9371 19.6842 34.3692 19.999C34.812 20.3169 35.3156 20.5467 35.8769 20.6863C36.4542 20.8409 37.0456 20.9182 37.653 20.9182C38.4039 20.9182 39.0626 20.8315 39.6282 20.6575C40.2055 20.4857 40.6836 20.2409 41.0645 19.9325C41.4547 19.6146 41.7481 19.2452 41.9433 18.8092C42.1384 18.3733 42.2362 17.9102 42.2379 17.409C42.2379 16.7922 42.1087 16.2905 41.8373 15.8983C41.5788 15.4989 41.2773 15.181 40.9111 14.9456C40.5535 14.7085 40.1874 14.5393 39.8169 14.4362C39.4593 14.3224 39.1707 14.2459 38.9682 14.2051L37.2882 13.7743C36.866 13.6614 36.5343 13.5475 36.2844 13.4307C36.0475 13.3177 35.8881 13.1945 35.8106 13.0613C35.733 12.9281 35.6899 12.7533 35.6899 12.5373C35.6899 12.3019 35.7416 12.1065 35.845 11.9523C35.9484 11.7981 36.0777 11.6709 36.2327 11.5674C36.4051 11.4652 36.5774 11.3922 36.7755 11.3514C36.9694 11.3105 37.1632 11.2895 37.3614 11.2895C37.663 11.2895 37.9343 11.3161 38.1799 11.3681C38.4213 11.4115 38.6522 11.5001 38.8605 11.6293C39.0587 11.7581 39.2138 11.9213 39.3258 12.1447C39.455 12.3595 39.524 12.6344 39.5412 12.9608H41.889C41.889 12.3251 41.7684 11.7882 41.5185 11.3458C41.2894 10.9028 40.9552 10.5224 40.5449 10.2376C40.1357 9.9498 39.6618 9.74363 39.1233 9.62336C38.6064 9.49451 38.0464 9.42578 37.4734 9.42578C36.978 9.42578 36.4826 9.49451 35.9915 9.62766C35.5155 9.75242 35.0659 9.96197 34.6647 10.2462C34.2741 10.523 33.948 10.8805 33.7083 11.2942C33.4714 11.7066 33.3551 12.1962 33.3551 12.7546C33.3551 13.2615 33.4412 13.691 33.6351 14.0432C33.8227 14.3867 34.0811 14.6868 34.3933 14.9237C34.7138 15.1676 35.0678 15.3643 35.4444 15.5079C35.8355 15.6539 36.237 15.7742 36.6506 15.8773C37.0441 15.991 37.4405 16.0941 37.8396 16.1865C38.2273 16.281 38.5805 16.3884 38.8907 16.513C39.2009 16.6376 39.4507 16.7922 39.6316 16.9769C39.8285 17.1616 39.9246 17.4064 39.9246 17.7071C39.9246 17.9863 39.8539 18.2225 39.7092 18.4029C39.5657 18.5747 39.3852 18.7165 39.1698 18.8196C38.9496 18.9244 38.7153 18.9968 38.4741 19.0343C38.2264 19.0644 38.0003 19.0773 37.7849 19.0773C37.473 19.0767 37.1623 19.0407 36.8587 18.9699C36.5571 18.884 36.2986 18.768 36.0703 18.6134C35.8549 18.4502 35.6826 18.2397 35.5448 17.982C35.4069 17.7243 35.3423 17.415 35.3423 17.0456H32.9945L32.9635 17.028ZM59.8812 12.3917L61.2697 16.4267H58.4136L59.8817 12.3917H59.8812ZM54.5322 20.5415V9.68221H51.1203L48.6498 17.2432L46.0715 9.6835H42.6597V20.6794H44.929L44.9601 12.9694L47.662 20.6837H49.5307L52.2628 12.8964V20.6837H56.9209L57.7859 18.2354H61.9085L62.7417 20.6837H65.2588L61.1361 9.68779H58.6505L54.5322 20.5548V20.5415ZM64.4976 17.028C64.4877 17.7058 64.6113 18.2895 64.868 18.7822C65.1248 19.2749 65.4703 19.6842 65.9019 19.999C66.3456 20.3169 66.8497 20.5467 67.4162 20.6863C67.9949 20.8412 68.5917 20.9192 69.191 20.9182C69.9427 20.9182 70.6023 20.8315 71.1726 20.6575C71.749 20.4857 72.2272 20.2409 72.608 19.9325C72.9957 19.6146 73.2973 19.2452 73.4885 18.8092C73.6798 18.3733 73.7815 17.9102 73.7815 17.409C73.7815 16.7922 73.6522 16.2905 73.3808 15.8983C73.1232 15.4989 72.8144 15.181 72.4538 14.9456C72.0932 14.7103 71.7279 14.5393 71.3574 14.4362C70.9973 14.3224 70.7147 14.2459 70.5088 14.2051L68.8257 13.7743C68.4035 13.6614 68.0692 13.5475 67.822 13.4307C67.585 13.3177 67.4256 13.1945 67.3481 13.0613C67.2706 12.9281 67.2245 12.7533 67.2245 12.5373C67.2245 12.3019 67.2762 12.1065 67.3795 11.9523C67.4829 11.7981 67.6104 11.6709 67.7651 11.5674C67.9301 11.4652 68.1097 11.3922 68.3053 11.3514C68.4982 11.3106 68.6948 11.2899 68.892 11.2895C69.191 11.2895 69.4637 11.3161 69.7105 11.3681C69.9677 11.4184 70.1943 11.5056 70.3903 11.6293C70.5863 11.753 70.7401 11.9213 70.853 12.1447C70.9766 12.3595 71.049 12.6344 71.0701 12.9608H73.417C73.417 12.3251 73.2878 11.7882 73.0466 11.3458C72.8096 10.8948 72.4857 10.5297 72.0738 10.2376C71.662 9.94551 71.1886 9.74363 70.6522 9.62336C70.128 9.49451 69.577 9.42578 69.0006 9.42578C68.5065 9.42578 68.0132 9.49451 67.5187 9.62766C67.0241 9.76081 66.5813 9.97128 66.1906 10.2462C65.8002 10.5235 65.4738 10.8808 65.2334 11.2942C64.9964 11.7066 64.8801 12.1962 64.8801 12.7546C64.8801 13.2615 64.9749 13.691 65.1601 14.0432C65.3491 14.3858 65.6073 14.6856 65.9183 14.9237C66.2388 15.1676 66.5928 15.3643 66.9694 15.5079C67.3571 15.6539 67.7621 15.7742 68.1756 15.8773C68.5763 15.9933 68.9726 16.0921 69.3646 16.1865C69.7523 16.281 70.1056 16.3884 70.4157 16.513C70.7259 16.6376 70.9758 16.7922 71.1567 16.9769C71.3505 17.1616 71.4496 17.4064 71.4496 17.7071C71.4496 17.9863 71.3764 18.2225 71.2342 18.4029C71.0921 18.5747 70.9111 18.7165 70.6957 18.8196C70.4804 18.9226 70.2477 18.9914 70.0065 19.0343C69.7609 19.0644 69.5326 19.0773 69.3172 19.0773C69.0054 19.0767 68.6947 19.0407 68.391 18.9699C68.0895 18.884 67.831 18.768 67.6027 18.6134C67.3873 18.4502 67.215 18.2397 67.0771 17.982C66.9393 17.7243 66.879 17.415 66.879 17.0456H64.5312L64.4976 17.028ZM74.189 20.679H76.6122V15.937H81.0751V20.679H83.4983V9.68221H81.0747V13.9015H76.6117V9.6835H74.189V20.6794V20.679ZM84.6054 20.679H87.0295V9.68221H84.6011L84.6054 20.679ZM88.1366 20.679H90.406L90.4362 13.3203L95.0228 20.6794H97.4468V9.68779H95.1722L95.1421 17.0645L90.5456 9.68779H88.1332V20.6837L88.1366 20.679Z" fill="#999999" />
    <path d="M28.772 21.7007L24.4641 3.11379C24.2949 2.38973 23.8447 1.76207 23.2122 1.36837C22.5797 0.974664 21.8165 0.847016 21.0898 1.0134L17.9506 1.7393L19.0276 1.94118L20.7852 1.53742C22.293 1.1938 23.8007 2.13017 24.1583 3.64211L25.7522 10.5081C25.106 11.8104 23.8136 14.001 21.8751 15.3188C22.3403 15.6955 22.7367 16.092 23.0727 16.5086C24.1066 17.8238 24.6235 19.4148 24.6235 21.2764C24.6235 23.0933 24.1238 24.628 23.133 25.8822L26.687 25.0639C28.2077 24.7203 29.1511 23.2092 28.7979 21.7007H28.772ZM5.8541 27.0449L8.08386 22.0761C9.95563 23.558 12.0699 24.2977 14.4238 24.2977C16.8663 24.2977 18.079 23.43 18.0842 21.699C18.0842 20.681 17.7145 19.852 16.9826 19.1992C16.2469 18.5463 14.8184 17.7817 12.6929 16.8969C11.4294 16.3729 10.3442 15.7887 9.42533 15.153C6.88369 15.8531 4.71683 17.5841 3.30987 19.2593L0.935372 8.97684C0.589018 7.47349 1.5277 5.96156 3.04623 5.61622L7.13613 4.67426C7.29859 4.47216 7.47384 4.28063 7.66083 4.10084L2.4483 5.29837C2.08818 5.38093 1.7479 5.53342 1.4469 5.74714C1.14591 5.96086 0.890092 6.23162 0.694068 6.54394C0.498045 6.85626 0.365656 7.20403 0.304464 7.56738C0.243273 7.93073 0.254477 8.30254 0.337439 8.66157L4.64531 27.2489C4.81396 27.9732 5.26371 28.6013 5.89598 28.9955C6.52826 29.3897 7.29148 29.5178 8.01838 29.3519L10.1551 28.8597L9.98837 28.8193C8.92002 28.5358 7.54365 27.9474 5.8541 27.0453V27.0449Z" fill="#999999" />
    <path d="M5.76728 8.86094C5.76728 7.19867 6.22391 5.80443 7.13632 4.67434L3.04556 5.61629C1.13286 6.05097 0.568531 7.37736 0.935562 8.97692L3.31911 19.2667C4.72606 17.5915 6.8968 15.8622 9.43457 15.1604C6.99588 13.4655 5.76814 11.3694 5.76814 8.86094H5.76728ZM21.2765 8.23813C19.91 7.07196 18.0016 6.4878 15.5634 6.4878C13.3767 6.4878 12.2808 7.35459 12.2808 9.08645C12.2808 9.77369 12.6448 10.3836 13.3603 10.9351C14.0785 11.4806 15.6125 12.2237 17.9698 13.1558C19.5783 13.7829 20.8707 14.5002 21.8641 15.312C23.8125 13.9891 25.1079 11.7985 25.7481 10.5013L24.1498 3.6293C23.8212 2.21486 22.686 1.09508 20.7794 1.52461L19.0248 1.92837C20.4214 2.23935 21.7732 2.72042 23.0742 3.38189L21.2765 8.23813Z" fill="#999999" />
    <path d="M7.13669 4.67431L19.0251 1.9365L17.9482 1.73462L7.65234 4.09702C7.46409 4.27742 7.28833 4.47071 7.12807 4.66829L7.13669 4.67431ZM23.0517 16.5048C22.7222 16.0873 22.3194 15.6913 21.8563 15.315C20.1848 16.4489 18.033 16.9472 15.3945 15.6801C13.3129 14.6853 11.2748 14.6522 9.4302 15.1647C10.3491 15.8025 11.4334 16.3862 12.6977 16.9085C14.8237 17.7912 16.2517 18.5571 16.9875 19.2078C17.7199 19.8521 18.089 20.6854 18.089 21.6991C18.0834 23.4301 16.8708 24.2934 14.4286 24.2934C12.0748 24.2934 9.9605 23.5503 8.08873 22.0685L5.86328 27.0385C7.55283 27.9405 8.92963 28.529 9.99755 28.8142C10.051 28.8284 10.1087 28.8408 10.1643 28.8546L23.1116 25.8762C24.1024 24.622 24.6021 23.0873 24.6021 21.27C24.5978 19.4045 24.0852 17.8136 23.0513 16.4988L23.0517 16.5048Z" fill="white" />
    <path d="M5.76758 8.86096C5.76758 11.3685 6.99446 13.4655 9.43444 15.1604C11.2791 14.6523 13.3171 14.6849 15.3983 15.6758C18.033 16.9387 20.18 16.449 21.8601 15.3107C20.8667 14.4946 19.5739 13.779 17.9658 13.1519C15.6137 12.222 14.0792 11.4802 13.3563 10.9313C12.6412 10.3793 12.2763 9.76554 12.2763 9.08216C12.2763 7.35117 13.3727 6.48352 15.5589 6.48352C17.9972 6.48352 19.9099 7.06768 21.2721 8.23471L23.0814 3.3862C21.7967 2.734 20.4347 2.2458 19.0277 1.93311L7.13791 4.67349C6.22464 5.80315 5.76801 7.19911 5.76801 8.86139L5.76758 8.86096Z" fill="white" />
</svg>