<svg width="210" height="32" viewBox="0 0 210 32" fill="none" xmlns="http://www.w3.org/2000/svg">
<path d="M23.0152 4.04352C19.9831 1.60932 16.4813 0.370874 12.5525 0.370874C5.89045 0.370874 1.15019 3.9154 1.15019 9.93682C1.15019 15.1896 4.31037 17.581 10.5453 19.0757C14.6877 20.0579 15.9262 20.6558 15.9262 22.1932C15.9262 23.6879 14.4315 24.6274 11.6983 24.6274C9.13604 24.6274 6.44562 23.6025 4.39577 22.0224C4.05413 21.7661 3.7979 21.638 3.58438 21.638C3.28544 21.638 2.98651 21.8515 2.73028 22.2786L0.50961 25.8231C0.296084 26.1648 0.167969 26.4637 0.167969 26.7626C0.167969 27.0616 0.381494 27.4032 0.808545 27.7449C3.71249 30.0082 7.38513 31.3748 11.6983 31.3748C18.8728 31.3748 23.6131 27.7449 23.6131 21.7234C23.6131 16.6842 20.4956 14.1646 13.8763 12.5418C10.1183 11.645 8.83711 11.0899 8.83711 9.50977C8.83711 8.1005 10.2464 7.11828 12.5097 7.11828C14.9012 7.11828 17.0792 8.01509 19.2999 9.68059C19.5988 9.89412 19.8977 10.0222 20.1113 10.0222C20.4102 10.0222 20.6664 9.80871 20.9227 9.42436L23.2287 5.75172C23.4423 5.45278 23.5277 5.19655 23.5277 4.89762C23.5277 4.59868 23.3568 4.29975 23.0152 4.04352Z" fill="white"/>
<path d="M35.7246 23.4316C35.7246 22.9619 35.8528 22.7911 36.3652 22.7911H39.1411C47.8956 22.7911 52.6359 19.033 52.6359 11.7304C52.6359 4.51327 48.2372 0.926041 39.44 0.926041H29.4043C28.6783 0.926041 28.294 1.22498 28.294 2.03637V29.7093C28.294 30.4353 28.6783 30.8196 29.4043 30.8196H34.5716C35.383 30.8196 35.7246 30.5207 35.7246 29.7093V23.4316ZM35.7246 8.39944C35.7246 7.92968 35.8528 7.75886 36.3652 7.75886H39.1411C43.0699 7.75886 44.9489 8.99731 44.9489 11.7731C44.9489 14.549 42.9418 15.9582 39.1411 15.9582H36.3652C35.8528 15.9582 35.7246 15.7874 35.7246 15.3177V8.39944Z" fill="white"/>
<path d="M61.9372 29.4531L69.4106 13.9084L76.9694 29.4531C77.4819 30.5207 77.909 30.8196 78.9766 30.8196H84.4428C85.0834 30.8196 85.4251 30.6061 85.4251 30.179C85.4251 29.9655 85.3397 29.7093 85.2115 29.4531L71.5032 2.33531C70.6491 0.669811 70.222 0.157349 69.5388 0.157349C68.8555 0.157349 68.3857 0.669811 67.5743 2.33531L53.9514 29.4531C53.8233 29.7093 53.7379 29.9655 53.7379 30.2218C53.7379 30.6061 54.0368 30.8196 54.6774 30.8196H59.8874C60.955 30.8196 61.4248 30.5207 61.9372 29.4531Z" fill="white"/>
<path d="M110.928 4.04352C107.896 1.60932 104.394 0.370874 100.465 0.370874C93.8029 0.370874 89.0627 3.9154 89.0627 9.93682C89.0627 15.1896 92.2228 17.581 98.4578 19.0757C102.6 20.0579 103.839 20.6558 103.839 22.1932C103.839 23.6879 102.344 24.6274 99.6108 24.6274C97.0485 24.6274 94.3581 23.6025 92.3083 22.0224C91.9666 21.7661 91.7104 21.638 91.4969 21.638C91.1979 21.638 90.899 21.8515 90.6428 22.2786L88.4221 25.8231C88.2086 26.1648 88.0804 26.4637 88.0804 26.7626C88.0804 27.0616 88.294 27.4032 88.721 27.7449C91.625 30.0082 95.2976 31.3748 99.6108 31.3748C106.785 31.3748 111.526 27.7449 111.526 21.7234C111.526 16.6842 108.408 14.1646 101.789 12.5418C98.0307 11.645 96.7496 11.0899 96.7496 9.50977C96.7496 8.1005 98.1589 7.11828 100.422 7.11828C102.814 7.11828 104.992 8.01509 107.212 9.68059C107.511 9.89412 107.81 10.0222 108.024 10.0222C108.323 10.0222 108.579 9.80871 108.835 9.42436L111.141 5.75172C111.355 5.45278 111.44 5.19655 111.44 4.89762C111.44 4.59868 111.269 4.29975 110.928 4.04352Z" fill="white"/>
<path d="M130.555 0.370874C121.502 0.24276 114.456 7.03287 114.584 15.9582C114.413 24.7982 121.459 31.5029 130.47 31.3748C139.652 31.5029 146.698 24.7982 146.57 15.8728C146.698 6.94746 139.737 0.24276 130.555 0.370874ZM130.513 24.542C125.772 24.542 122.271 21.0829 122.271 15.9155C122.271 10.7482 125.815 7.20369 130.555 7.20369C135.296 7.20369 138.883 10.7055 138.883 15.9155C138.883 20.9974 135.21 24.542 130.513 24.542Z" fill="white"/>
<path d="M157.641 30.8196C158.452 30.8196 158.794 30.5207 158.794 29.7093V8.0578C158.794 7.54534 158.922 7.41722 159.434 7.41722H162.082C165.883 7.41722 167.847 8.78378 167.847 11.6877C167.847 14.4636 165.541 16.0437 162.253 16.428C161.698 16.5134 161.399 16.6842 161.399 16.9832C161.399 17.1967 161.612 17.6237 161.655 17.6664L168.488 29.5385C169.128 30.6061 169.513 30.8196 170.709 30.8196H176.26C176.986 30.8196 177.328 30.6061 177.328 30.2218C177.328 30.0082 177.242 29.752 177.029 29.4531L170.495 18.7768C173.869 17.154 175.534 14.549 175.534 10.9617C175.534 4.12893 171.178 0.926041 162.253 0.926041H152.473C151.747 0.926041 151.363 1.22498 151.363 2.03637V29.7093C151.363 30.4353 151.747 30.8196 152.473 30.8196H157.641Z" fill="white"/>
<path d="M185.59 29.4531L193.064 13.9084L200.622 29.4531C201.135 30.5207 201.562 30.8196 202.63 30.8196H208.096C208.736 30.8196 209.078 30.6061 209.078 30.179C209.078 29.9655 208.993 29.7093 208.865 29.4531L195.156 2.33531C194.302 0.669811 193.875 0.157349 193.192 0.157349C192.508 0.157349 192.039 0.669811 191.227 2.33531L177.604 29.4531C177.476 29.7093 177.391 29.9655 177.391 30.2218C177.391 30.6061 177.69 30.8196 178.33 30.8196H183.54C184.608 30.8196 185.078 30.5207 185.59 29.4531Z" fill="white"/>
</svg>
