<svg viewBox="0 0 94 25" fill="none" xmlns="http://www.w3.org/2000/svg">
    <g opacity="0.974563">
        <g opacity="0.974563">
            <path opacity="0.974563" fill-rule="evenodd" clip-rule="evenodd" d="M14.187 18.0697V11.3406C14.187 11.101 13.9921 10.9067 13.7518 10.9067H7.03711V3.96069H20.685C20.9253 3.96069 21.1202 4.15498 21.1202 4.39464V18.0697H14.187Z" fill="#999999" />
            <path opacity="0.404989" fill-rule="evenodd" clip-rule="evenodd" d="M7.03542 3.96069V10.9067H0.625815C0.505631 10.9067 0.408203 10.8095 0.408203 10.6897C0.408203 10.6323 0.430988 10.5773 0.471573 10.5367L7.03542 3.96069Z" fill="#999999" />
            <path opacity="0.404989" fill-rule="evenodd" clip-rule="evenodd" d="M14.184 24.4901V18.0697H21.1172L14.5558 24.6431C14.4711 24.7281 14.3333 24.7284 14.2481 24.6438C14.2071 24.6031 14.184 24.5478 14.184 24.4901Z" fill="#999999" />
            <path opacity="0.404989" fill-rule="evenodd" clip-rule="evenodd" d="M7.03711 10.9065H13.9694C14.0895 10.9065 14.187 11.0036 14.187 11.1235V18.0695H7.47233C7.23197 18.0695 7.03711 17.8753 7.03711 17.6356V10.9065Z" fill="#999999" />
        </g>
    </g>
    <path d="M47.8291 8.75427H45.0869V13.9357C45.0869 14.3674 45.1949 14.683 45.4109 14.8823C45.6268 15.0815 45.9425 15.1936 46.3578 15.2185C46.7377 15.2413 47.2011 15.2398 47.7479 15.2139C47.7677 15.213 47.7935 15.2117 47.8253 15.2101C47.8659 15.208 47.9005 15.2391 47.9026 15.2796C47.9027 15.2809 47.9027 15.2821 47.9027 15.2834V18.0549C47.9027 18.0924 47.8745 18.1238 47.8372 18.1279C47.8168 18.1301 47.7999 18.1319 47.7865 18.1334C45.6386 18.3623 44.1199 18.1504 43.2305 17.4979C42.3251 16.8336 41.8724 15.6462 41.8724 13.9357V8.75427H39.7781C39.7375 8.75427 39.7045 8.72142 39.7045 8.68089V5.73874C39.7045 5.69822 39.7375 5.66536 39.7781 5.66536H41.8724V3.60745C41.8724 3.54931 41.9069 3.49666 41.9602 3.47319L44.9836 2.14293C45.0208 2.12657 45.0642 2.14336 45.0807 2.18043C45.0848 2.18977 45.0869 2.19985 45.0869 2.21006V5.66536H47.8291C47.8698 5.66536 47.9027 5.69822 47.9027 5.73874V8.68089C47.9027 8.72142 47.8698 8.75427 47.8291 8.75427ZM53.7312 7.80767C54.0302 7.01053 54.5244 6.41268 55.2139 6.01411C55.8448 5.64936 56.5418 5.45151 57.3049 5.42056C57.3388 5.41919 57.3852 5.41806 57.4441 5.41718C57.4848 5.41655 57.5182 5.44892 57.5188 5.48944C57.5188 5.48981 57.5188 5.49018 57.5188 5.49054V8.86926C57.5188 8.93597 57.4646 8.99005 57.3977 8.99005C57.394 8.99005 57.3904 8.98989 57.3867 8.98956C56.4598 8.90576 55.6275 9.10964 54.8899 9.60123C54.1174 10.116 53.7312 10.9713 53.7312 12.167V18.0472C53.7312 18.0878 53.6983 18.1206 53.6576 18.1206H50.5903C50.5497 18.1206 50.5167 18.0878 50.5167 18.0472V5.73874C50.5167 5.69822 50.5497 5.66536 50.5903 5.66536H53.6576C53.6983 5.66536 53.7312 5.69822 53.7312 5.73874V7.80767ZM68.9303 5.66536H71.9976C72.0383 5.66536 72.0712 5.69822 72.0712 5.73874V18.0472C72.0712 18.0878 72.0383 18.1206 71.9976 18.1206H68.9303C68.8897 18.1206 68.8567 18.0878 68.8567 18.0472V16.6509C67.8932 17.8632 66.5393 18.4694 64.795 18.4694C63.1338 18.4694 61.7093 17.8342 60.5215 16.5637C59.3337 15.2933 58.7398 13.7364 58.7398 11.893C58.7398 10.0496 59.3337 8.49271 60.5215 7.22227C61.7093 5.95183 63.1338 5.31662 64.795 5.31662C66.5393 5.31662 67.8932 5.92277 68.8567 7.13508V5.73874C68.8567 5.69822 68.8897 5.66536 68.9303 5.66536ZM62.9261 14.4339C63.574 15.0815 64.3963 15.4054 65.3931 15.4054C66.3898 15.4054 67.2163 15.0774 67.8725 14.4214C68.5286 13.7654 68.8567 12.9226 68.8567 11.893C68.8567 10.8634 68.5286 10.0206 67.8725 9.36458C67.2163 8.7086 66.3898 8.38061 65.3931 8.38061C64.3963 8.38061 63.574 8.7086 62.9261 9.36458C62.2782 10.0206 61.9543 10.8634 61.9543 11.893C61.9543 12.9226 62.2782 13.7696 62.9261 14.4339ZM81.7343 5.31662C83.4122 5.31662 84.845 5.95183 86.0328 7.22227C87.2206 8.49271 87.8144 10.0496 87.8144 11.893C87.8144 13.7364 87.2206 15.2933 86.0328 16.5637C84.845 17.8342 83.4122 18.4694 81.7343 18.4694C79.99 18.4694 78.6444 17.8632 77.6975 16.6509V23.0294C77.6975 23.0699 77.6646 23.1027 77.6239 23.1027H74.5566C74.516 23.1027 74.483 23.0699 74.483 23.0294V5.73874C74.483 5.69822 74.516 5.66536 74.5566 5.66536H77.6239C77.6646 5.66536 77.6975 5.69822 77.6975 5.73874V7.13508C78.6444 5.92277 79.99 5.31662 81.7343 5.31662ZM78.6694 14.4339C79.3172 15.0815 80.1395 15.4054 81.1363 15.4054C82.133 15.4054 82.9595 15.0774 83.6157 14.4214C84.2719 13.7654 84.5999 12.9226 84.5999 11.893C84.5999 10.8634 84.2719 10.0206 83.6157 9.36458C82.9595 8.7086 82.133 8.38061 81.1363 8.38061C80.1395 8.38061 79.3172 8.7086 78.6694 9.36458C78.0215 10.0206 77.6975 10.8634 77.6975 11.893C77.6975 12.9226 78.0215 13.7696 78.6694 14.4339ZM91.3237 4.17073C90.7921 4.17073 90.3311 3.9756 89.9407 3.58534C89.5503 3.19507 89.3551 2.73423 89.3551 2.2028C89.3551 1.67138 89.5503 1.20638 89.9407 0.807813C90.3311 0.409243 90.7921 0.209961 91.3237 0.209961C91.8719 0.209961 92.3412 0.409243 92.7315 0.807813C93.1219 1.20638 93.3171 1.67138 93.3171 2.2028C93.3171 2.73423 93.1219 3.19507 92.7315 3.58534C92.3412 3.9756 91.8719 4.17073 91.3237 4.17073ZM89.7289 18.0472V5.73874C89.7289 5.69822 89.7618 5.66536 89.8025 5.66536H92.8698C92.9104 5.66536 92.9434 5.69822 92.9434 5.73874V18.0472C92.9434 18.0878 92.9104 18.1206 92.8698 18.1206H89.8025C89.7618 18.1206 89.7289 18.0878 89.7289 18.0472ZM32.1542 9.20266C32.1542 9.5348 32.3743 9.80466 32.8146 10.0122C33.2548 10.2198 33.7905 10.4025 34.4218 10.5603C35.0531 10.718 35.6843 10.9173 36.3156 11.1581C36.9469 11.3989 37.4826 11.8017 37.9229 12.3663C38.3631 12.9309 38.5832 13.6367 38.5832 14.4837C38.5832 15.7624 38.1056 16.7464 37.1504 17.4356C36.1952 18.1248 35.0032 18.4694 33.5746 18.4694C31.0736 18.4694 29.3506 17.5251 28.4055 15.6365C28.3974 15.6202 28.387 15.5991 28.3745 15.5733C28.3569 15.5368 28.3722 15.493 28.4088 15.4753C28.4095 15.475 28.4102 15.4747 28.4109 15.4744L31.1147 14.2768C31.1858 14.2453 31.2693 14.2744 31.3051 14.3434C31.3055 14.3441 31.3059 14.3448 31.3063 14.3455C31.7274 15.1517 32.4835 15.5548 33.5746 15.5548C34.7208 15.5548 35.294 15.1978 35.294 14.4837C35.294 14.1515 35.0738 13.8817 34.6336 13.6741C34.1934 13.4665 33.6576 13.2797 33.0264 13.1136C32.3951 12.9475 31.7638 12.74 31.1326 12.4908C30.5013 12.2417 29.9655 11.8473 29.5253 11.3076C29.0851 10.7679 28.865 10.0911 28.865 9.27739C28.865 8.04846 29.3177 7.08112 30.223 6.37531C31.1284 5.66951 32.2539 5.31662 33.5995 5.31662C34.6129 5.31662 35.5348 5.54496 36.3654 6.00166C37.1195 6.41628 37.7209 6.96049 38.1858 7.69102C38.2095 7.72827 38.2413 7.78065 38.2813 7.84817C38.3019 7.88307 38.2903 7.92806 38.2553 7.94867C38.2529 7.95011 38.2503 7.9514 38.2477 7.95255L35.537 9.15143C35.4891 9.1726 35.4329 9.15605 35.4043 9.11234C34.9975 8.49166 34.3959 8.18133 33.5995 8.18133C33.1842 8.18133 32.8395 8.27266 32.5654 8.45534C32.2913 8.63802 32.1542 8.88712 32.1542 9.20266Z" fill="#999999" />
</svg>